<?xml version="1.0" encoding="utf-8"?>
<svg width="649px" height="789px" viewBox="0 0 649 789" version="1.1" xmlns:xlink="http://www.w3.org/1999/xlink" xmlns="http://www.w3.org/2000/svg">
  <defs>
    <path d="M649 0L649 0L649 789L0 789L0 0L649 0Z" id="path_1" />
    <path d="M649 0L649 0L649 789L0 789L0 0L649 0L649 0Z" id="path_2" />
    <path d="M512 0L512 0L512 512L0 512L0 0L512 0L512 0Z" id="path_3" />
    <path d="M256 0C397.404 0 512 114.596 512 256L512 256C512 397.404 397.404 512 256 512L256 512C114.596 512 0 397.404 0 256L0 256C0 114.596 114.596 0 256 0L256 0L256 0Z" id="path_4" />
    <clipPath id="clip_1">
      <use xlink:href="#path_1" clip-rule="evenodd" fill-rule="evenodd" />
    </clipPath>
    <clipPath id="clip_2">
      <use xlink:href="#path_2" clip-rule="evenodd" fill-rule="evenodd" />
    </clipPath>
    <clipPath id="clip_3">
      <use xlink:href="#path_3" clip-rule="evenodd" fill-rule="evenodd" />
    </clipPath>
    <clipPath id="clip_4">
      <use xlink:href="#path_4" clip-rule="evenodd" fill-rule="evenodd" />
    </clipPath>
  </defs>
  <g id="shamayim_logo">
    <path d="M649 0L649 0L649 789L0 789L0 0L649 0Z" id="shamayim_logo" fill="none" stroke="none" />
    <g id="Mask-Group" clip-path="url(#clip_1)">
      <path d="M649 0L649 0L649 789L0 789L0 0L649 0L649 0Z" id="path_1" fill="none" stroke="none" />
      <g clip-path="url(#clip_2)">
        <g id="Instagram-Post-Square">
          <path d="M649 0L649 0L649 789L0 789L0 0L649 0L649 0Z" id="Instagram-Post-Square" fill="#0C0E0E" fill-opacity="0" stroke="none" />
          <g id="Mask-Group" transform="translate(68 56)">
            <path d="M512 0L512 0L512 512L0 512L0 0L512 0L512 0Z" id="path_2" fill="none" stroke="none" />
            <g clip-path="url(#clip_3)">
              <g id="svg">
                <path d="M512 0L512 0L512 512L0 512L0 0L512 0L512 0Z" id="svg#1" fill="none" stroke="none" />
                <g id="Mask-Group">
                  <path d="M256 0C397.404 0 512 114.596 512 256L512 256C512 397.404 397.404 512 256 512L256 512C114.596 512 0 397.404 0 256L0 256C0 114.596 114.596 0 256 0L256 0L256 0Z" id="path_1#1" fill="none" stroke="none" />
                  <g id="Mask-Group">
                    <path d="M256 0C397.404 0 512 114.596 512 256L512 256C512 397.404 397.404 512 256 512L256 512C114.596 512 0 397.404 0 256L0 256C0 114.596 114.596 0 256 0L256 0L256 0Z" id="path_3" fill="none" stroke="none" />
                    <g clip-path="url(#clip_4)">
                      <g id="Group" transform="translate(-3 0)">
                        <g id="Shamayim---Logo">
                          <path d="M259 0C400.404 0 515 114.596 515 256L515 256C515 397.404 400.404 512 259 512L259 512C117.596 512 3 397.404 3 256L3 256C3 114.596 117.596 0 259 0L259 0L259 0Z" id="Shamayim---Logo#1" fill="#03666F" stroke="none" />
                          <path d="M274.5 290C177.905 290 85.4028 307.525 0 339.569L0 522L519 522L519 329.009C442.083 303.695 359.891 290 274.5 290L274.5 290L274.5 290L274.5 290Z" id="Vector" fill="#0C0E0E" fill-rule="evenodd" stroke="none" />
                          <path d="M259 105L271.23 144.333L304 150L271.23 161.49L259 251.761L246.804 161.49L214 150L246.804 144.333L259 105L259 105L259 105Z" id="Christ" fill="#FFFFFF" fill-rule="evenodd" stroke="none" />
                          <path d="M40.3472 158.682C40.3472 156.342 42.2435 154.446 44.5828 154.446C46.9221 154.446 48.8185 156.342 48.8185 158.682C48.8185 161.021 46.9221 162.917 44.5828 162.917C42.2435 162.917 40.3472 161.021 40.3472 158.682L40.3472 158.682L40.3472 158.682ZM106.201 109.064C106.201 106.724 108.097 104.828 110.436 104.828C112.776 104.828 114.672 106.724 114.672 109.064C114.672 111.403 112.776 113.299 110.436 113.299C108.097 113.299 106.201 111.403 106.201 109.064L106.201 109.064L106.201 109.064ZM177.844 58.2357C177.844 55.8964 179.74 54 182.08 54C184.419 54 186.315 55.8964 186.315 58.2357C186.315 60.575 184.419 62.4713 182.08 62.4713C179.74 62.4713 177.844 60.575 177.844 58.2357L177.844 58.2357L177.844 58.2357ZM259.4 39.5C259.4 37.567 260.967 36 262.9 36C264.833 36 266.4 37.567 266.4 39.5C266.4 41.433 264.833 43 262.9 43C260.967 43 259.4 41.433 259.4 39.5L259.4 39.5L259.4 39.5ZM454.736 184.096C454.736 181.756 456.632 179.86 458.971 179.86C461.311 179.86 463.207 181.756 463.207 184.096C463.207 186.435 461.311 188.331 458.971 188.331C456.632 188.331 454.736 186.435 454.736 184.096L454.736 184.096L454.736 184.096ZM386.965 84.8599C386.965 82.5206 388.861 80.6242 391.201 80.6242C393.54 80.6242 395.436 82.5206 395.436 84.8599C395.436 87.1992 393.54 89.0955 391.201 89.0955C388.861 89.0955 386.965 87.1992 386.965 84.8599L386.965 84.8599L386.965 84.8599ZM186 239.764C186 237.425 187.896 235.529 190.236 235.529C192.575 235.529 194.471 237.425 194.471 239.764C194.471 242.104 192.575 244 190.236 244C187.896 244 186 242.104 186 239.764L186 239.764L186 239.764ZM98.4712 206.764C98.4712 204.425 100.368 202.529 102.707 202.529C105.046 202.529 106.943 204.425 106.943 206.764C106.943 209.104 105.046 211 102.707 211C100.368 211 98.4712 209.104 98.4712 206.764L98.4712 206.764L98.4712 206.764ZM455.946 142.344C455.946 138.334 459.197 135.083 463.207 135.083C467.217 135.083 470.468 138.334 470.468 142.344C470.468 146.354 467.217 149.605 463.207 149.605C459.197 149.605 455.946 146.354 455.946 142.344L455.946 142.344L455.946 142.344ZM349.449 213.745C349.449 209.735 352.7 206.484 356.71 206.484C360.721 206.484 363.971 209.735 363.971 213.745C363.971 217.755 360.721 221.006 356.71 221.006C352.7 221.006 349.449 217.755 349.449 213.745L349.449 213.745L349.449 213.745ZM349.449 99.3822C349.449 98.3796 350.262 97.5669 351.264 97.5669C352.267 97.5669 353.08 98.3796 353.08 99.3822C353.08 100.385 352.267 101.197 351.264 101.197C350.262 101.197 349.449 100.385 349.449 99.3822L349.449 99.3822L349.449 99.3822ZM343 175.082C343 174.08 343.813 173.267 344.815 173.267C345.818 173.267 346.631 174.08 346.631 175.082C346.631 176.085 345.818 176.897 344.815 176.897C343.813 176.897 343 176.085 343 175.082L343 175.082L343 175.082ZM195.28 103.185C195.28 102.182 196.092 101.369 197.095 101.369C198.098 101.369 198.91 102.182 198.91 103.185C198.91 104.187 198.098 105 197.095 105C196.092 105 195.28 104.187 195.28 103.185L195.28 103.185L195.28 103.185ZM186 181.815C186 180.813 186.813 180 187.815 180C188.818 180 189.631 180.813 189.631 181.815C189.631 182.818 188.818 183.631 187.815 183.631C186.813 183.631 186 182.818 186 181.815L186 181.815L186 181.815ZM19.0669 228.268C19.0669 224.257 22.3178 221.006 26.328 221.006C30.3383 221.006 33.5892 224.257 33.5892 228.268C33.5892 232.278 30.3383 235.529 26.328 235.529C22.3178 235.529 19.0669 232.278 19.0669 228.268L19.0669 228.268L19.0669 228.268ZM486.9 236.261C486.9 232.251 490.151 229 494.161 229C498.171 229 501.422 232.251 501.422 236.261C501.422 240.271 498.171 243.522 494.161 243.522C490.151 243.522 486.9 240.271 486.9 236.261L486.9 236.261L486.9 236.261ZM349 241.383C349 240.38 349.813 239.568 350.815 239.568C351.818 239.568 352.631 240.38 352.631 241.383C352.631 242.385 351.818 243.198 350.815 243.198C349.813 243.198 349 242.385 349 241.383L349 241.383L349 241.383ZM89.3694 234.185C89.3694 233.182 90.1821 232.369 91.1847 232.369C92.1872 232.369 93 233.182 93 234.185C93 235.187 92.1872 236 91.1847 236C90.1821 236 89.3694 235.187 89.3694 234.185L89.3694 234.185L89.3694 234.185ZM384.545 157.471C384.545 155.8 385.899 154.446 387.57 154.446C389.241 154.446 390.596 155.8 390.596 157.471C390.596 159.142 389.241 160.497 387.57 160.497C385.899 160.497 384.545 159.142 384.545 157.471L384.545 157.471L384.545 157.471ZM403.896 224.471C403.896 222.8 405.25 221.446 406.921 221.446C408.592 221.446 409.947 222.8 409.947 224.471C409.947 226.142 408.592 227.497 406.921 227.497C405.25 227.497 403.896 226.142 403.896 224.471L403.896 224.471L403.896 224.471ZM337.696 57.4713C337.696 55.8004 339.05 54.4459 340.721 54.4459C342.392 54.4459 343.747 55.8004 343.747 57.4713C343.747 59.1423 342.392 60.4968 340.721 60.4968C339.05 60.4968 337.696 59.1423 337.696 57.4713L337.696 57.4713L337.696 57.4713ZM270.787 83.6497C270.787 81.9788 272.141 80.6242 273.812 80.6242C275.483 80.6242 276.838 81.9788 276.838 83.6497C276.838 85.3206 275.483 86.6752 273.812 86.6752C272.141 86.6752 270.787 85.3206 270.787 83.6497L270.787 83.6497L270.787 83.6497ZM131.615 169.573C131.615 167.902 132.969 166.548 134.64 166.548C136.311 166.548 137.666 167.902 137.666 169.573C137.666 171.244 136.311 172.599 134.64 172.599C132.969 172.599 131.615 171.244 131.615 169.573L131.615 169.573L131.615 169.573ZM438.277 221.611C438.277 219.272 440.174 217.376 442.513 217.376C444.852 217.376 446.748 219.272 446.748 221.611C446.748 223.951 444.852 225.847 442.513 225.847C440.174 225.847 438.277 223.951 438.277 221.611L438.277 221.611L438.277 221.611Z" id="stars" fill="#FFFFFF" fill-rule="evenodd" stroke="none" />
                        </g>
                      </g>
                    </g>
                  </g>
                </g>
              </g>
            </g>
          </g>
          <path d="M130.44 679.92C126.92 679.92 123.573 679.44 120.4 678.48C117.227 677.52 114.733 676.347 112.92 674.96L116.12 668.88C117.933 670.107 120.173 671.147 122.84 672C125.507 672.853 128.227 673.28 131 673.28C134.573 673.28 137.147 672.773 138.72 671.76C140.293 670.747 141.08 669.333 141.08 667.52C141.08 666.187 140.6 665.147 139.64 664.4C138.68 663.653 137.413 663.093 135.84 662.72C134.267 662.347 132.52 662.013 130.6 661.72C128.68 661.427 126.76 661.053 124.84 660.6C122.92 660.147 121.16 659.507 119.56 658.68C117.96 657.853 116.68 656.707 115.72 655.24C114.76 653.773 114.28 651.813 114.28 649.36C114.28 646.8 115 644.56 116.44 642.64C117.88 640.72 119.92 639.24 122.56 638.2C125.2 637.16 128.333 636.64 131.96 636.64C134.733 636.64 137.547 636.973 140.4 637.64C143.253 638.307 145.587 639.253 147.4 640.48L144.12 646.56C142.2 645.28 140.2 644.4 138.12 643.92C136.04 643.44 133.96 643.2 131.88 643.2C128.52 643.2 126.013 643.747 124.36 644.84C122.707 645.933 121.88 647.333 121.88 649.04C121.88 650.48 122.373 651.587 123.36 652.36C124.347 653.133 125.627 653.733 127.2 654.16C128.773 654.587 130.52 654.947 132.44 655.24C134.36 655.533 136.28 655.907 138.2 656.36C140.12 656.813 141.867 657.44 143.44 658.24C145.013 659.04 146.293 660.16 147.28 661.6C148.267 663.04 148.76 664.96 148.76 667.36C148.76 669.92 148.013 672.133 146.52 674C145.027 675.867 142.92 677.32 140.2 678.36C137.48 679.4 134.227 679.92 130.44 679.92L130.44 679.92ZM181 636.64C184.467 636.64 187.52 637.307 190.16 638.64C192.8 639.973 194.867 642 196.36 644.72C197.853 647.44 198.6 650.88 198.6 655.04L198.6 679.44L190.92 679.44L190.92 655.92C190.92 651.813 189.92 648.72 187.92 646.64C185.92 644.56 183.107 643.52 179.48 643.52C176.76 643.52 174.387 644.053 172.36 645.12C170.333 646.187 168.773 647.76 167.68 649.84C166.587 651.92 166.04 654.507 166.04 657.6L166.04 679.44L158.36 679.44L158.36 620.08L166.04 620.08L166.04 648.48L164.52 645.44C165.907 642.667 168.04 640.507 170.92 638.96C173.8 637.413 177.16 636.64 181 636.64L181 636.64ZM239.16 679.44L239.16 670.48L238.76 668.8L238.76 653.52C238.76 650.267 237.813 647.747 235.92 645.96C234.027 644.173 231.187 643.28 227.4 643.28C224.893 643.28 222.44 643.693 220.04 644.52C217.64 645.347 215.613 646.453 213.96 647.84L210.76 642.08C212.947 640.32 215.573 638.973 218.64 638.04C221.707 637.107 224.92 636.64 228.28 636.64C234.093 636.64 238.573 638.053 241.72 640.88C244.867 643.707 246.44 648.027 246.44 653.84L246.44 679.44L239.16 679.44L239.16 679.44ZM225.24 679.92C222.093 679.92 219.333 679.387 216.96 678.32C214.587 677.253 212.76 675.773 211.48 673.88C210.2 671.987 209.56 669.84 209.56 667.44C209.56 665.147 210.107 663.067 211.2 661.2C212.293 659.333 214.08 657.84 216.56 656.72C219.04 655.6 222.387 655.04 226.6 655.04L240.04 655.04L240.04 660.56L226.92 660.56C223.08 660.56 220.493 661.2 219.16 662.48C217.827 663.76 217.16 665.307 217.16 667.12C217.16 669.2 217.987 670.867 219.64 672.12C221.293 673.373 223.587 674 226.52 674C229.4 674 231.92 673.36 234.08 672.08C236.24 670.8 237.8 668.933 238.76 666.48L240.28 671.76C239.267 674.267 237.48 676.253 234.92 677.72C232.36 679.187 229.133 679.92 225.24 679.92L225.24 679.92ZM313.72 636.64C317.133 636.64 320.147 637.307 322.76 638.64C325.373 639.973 327.413 642 328.88 644.72C330.347 647.44 331.08 650.88 331.08 655.04L331.08 679.44L323.4 679.44L323.4 655.92C323.4 651.813 322.44 648.72 320.52 646.64C318.6 644.56 315.907 643.52 312.44 643.52C309.88 643.52 307.64 644.053 305.72 645.12C303.8 646.187 302.32 647.76 301.28 649.84C300.24 651.92 299.72 654.507 299.72 657.6L299.72 679.44L292.04 679.44L292.04 655.92C292.04 651.813 291.093 648.72 289.2 646.64C287.307 644.56 284.6 643.52 281.08 643.52C278.573 643.52 276.36 644.053 274.44 645.12C272.52 646.187 271.027 647.76 269.96 649.84C268.893 651.92 268.36 654.507 268.36 657.6L268.36 679.44L260.68 679.44L260.68 637.04L268.04 637.04L268.04 648.32L266.84 645.44C268.173 642.667 270.227 640.507 273 638.96C275.773 637.413 279 636.64 282.68 636.64C286.733 636.64 290.227 637.64 293.16 639.64C296.093 641.64 298.013 644.667 298.92 648.72L295.8 647.44C297.08 644.187 299.32 641.573 302.52 639.6C305.72 637.627 309.453 636.64 313.72 636.64L313.72 636.64ZM371.56 679.44L371.56 670.48L371.16 668.8L371.16 653.52C371.16 650.267 370.213 647.747 368.32 645.96C366.427 644.173 363.587 643.28 359.8 643.28C357.293 643.28 354.84 643.693 352.44 644.52C350.04 645.347 348.013 646.453 346.36 647.84L343.16 642.08C345.347 640.32 347.973 638.973 351.04 638.04C354.107 637.107 357.32 636.64 360.68 636.64C366.493 636.64 370.973 638.053 374.12 640.88C377.267 643.707 378.84 648.027 378.84 653.84L378.84 679.44L371.56 679.44L371.56 679.44ZM357.64 679.92C354.493 679.92 351.733 679.387 349.36 678.32C346.987 677.253 345.16 675.773 343.88 673.88C342.6 671.987 341.96 669.84 341.96 667.44C341.96 665.147 342.507 663.067 343.6 661.2C344.693 659.333 346.48 657.84 348.96 656.72C351.44 655.6 354.787 655.04 359 655.04L372.44 655.04L372.44 660.56L359.32 660.56C355.48 660.56 352.893 661.2 351.56 662.48C350.227 663.76 349.56 665.307 349.56 667.12C349.56 669.2 350.387 670.867 352.04 672.12C353.693 673.373 355.987 674 358.92 674C361.8 674 364.32 673.36 366.48 672.08C368.64 670.8 370.2 668.933 371.16 666.48L372.68 671.76C371.667 674.267 369.88 676.253 367.32 677.72C364.76 679.187 361.533 679.92 357.64 679.92L357.64 679.92ZM394.12 695.44C392.093 695.44 390.12 695.107 388.2 694.44C386.28 693.773 384.627 692.8 383.24 691.52L386.52 685.76C387.587 686.773 388.76 687.547 390.04 688.08C391.32 688.613 392.68 688.88 394.12 688.88C395.987 688.88 397.533 688.4 398.76 687.44C399.987 686.48 401.133 684.773 402.2 682.32L404.84 676.48L405.64 675.52L422.28 637.04L429.8 637.04L409.24 683.68C408.013 686.667 406.64 689.013 405.12 690.72C403.6 692.427 401.933 693.64 400.12 694.36C398.307 695.08 396.307 695.44 394.12 695.44L394.12 695.44ZM404.2 680.8L384.84 637.04L392.84 637.04L409.32 674.8L404.2 680.8L404.2 680.8ZM437 679.44L437 637.04L444.68 637.04L444.68 679.44L437 679.44L437 679.44ZM440.84 628.88C439.347 628.88 438.107 628.4 437.12 627.44C436.133 626.48 435.64 625.307 435.64 623.92C435.64 622.48 436.133 621.28 437.12 620.32C438.107 619.36 439.347 618.88 440.84 618.88C442.333 618.88 443.573 619.347 444.56 620.28C445.547 621.213 446.04 622.373 446.04 623.76C446.04 625.2 445.56 626.413 444.6 627.4C443.64 628.387 442.387 628.88 440.84 628.88L440.84 628.88ZM512.36 636.64C515.773 636.64 518.787 637.307 521.4 638.64C524.013 639.973 526.053 642 527.52 644.72C528.987 647.44 529.72 650.88 529.72 655.04L529.72 679.44L522.04 679.44L522.04 655.92C522.04 651.813 521.08 648.72 519.16 646.64C517.24 644.56 514.547 643.52 511.08 643.52C508.52 643.52 506.28 644.053 504.36 645.12C502.44 646.187 500.96 647.76 499.92 649.84C498.88 651.92 498.36 654.507 498.36 657.6L498.36 679.44L490.68 679.44L490.68 655.92C490.68 651.813 489.733 648.72 487.84 646.64C485.947 644.56 483.24 643.52 479.72 643.52C477.213 643.52 475 644.053 473.08 645.12C471.16 646.187 469.667 647.76 468.6 649.84C467.533 651.92 467 654.507 467 657.6L467 679.44L459.32 679.44L459.32 637.04L466.68 637.04L466.68 648.32L465.48 645.44C466.813 642.667 468.867 640.507 471.64 638.96C474.413 637.413 477.64 636.64 481.32 636.64C485.373 636.64 488.867 637.64 491.8 639.64C494.733 641.64 496.653 644.667 497.56 648.72L494.44 647.44C495.72 644.187 497.96 641.573 501.16 639.6C504.36 637.627 508.093 636.64 512.36 636.64L512.36 636.64Z" id="shamayim" fill="#03666F" fill-rule="evenodd" stroke="none" />
          <path d="M300.412 735.028C298.54 735.028 296.866 734.614 295.39 733.786C293.914 732.958 292.756 731.818 291.916 730.366C291.076 728.914 290.656 727.252 290.656 725.38C290.656 723.484 291.076 721.816 291.916 720.376C292.756 718.936 293.914 717.808 295.39 716.992C296.866 716.176 298.54 715.768 300.412 715.768C302.02 715.768 303.472 716.08 304.768 716.704C306.064 717.328 307.084 718.264 307.828 719.512L305.92 720.808C305.272 719.848 304.468 719.14 303.508 718.684C302.548 718.228 301.504 718 300.376 718C299.032 718 297.82 718.306 296.74 718.918C295.66 719.53 294.808 720.388 294.184 721.492C293.56 722.596 293.248 723.892 293.248 725.38C293.248 726.868 293.56 728.164 294.184 729.268C294.808 730.372 295.66 731.23 296.74 731.842C297.82 732.454 299.032 732.76 300.376 732.76C301.504 732.76 302.548 732.532 303.508 732.076C304.468 731.62 305.272 730.924 305.92 729.988L307.828 731.284C307.084 732.508 306.064 733.438 304.768 734.074C303.472 734.71 302.02 735.028 300.412 735.028L300.412 735.028ZM322.192 715.768C323.728 715.768 325.078 716.062 326.242 716.65C327.406 717.238 328.318 718.132 328.978 719.332C329.638 720.532 329.968 722.044 329.968 723.868L329.968 734.848L327.412 734.848L327.412 724.12C327.412 722.128 326.914 720.622 325.918 719.602C324.922 718.582 323.524 718.072 321.724 718.072C320.38 718.072 319.21 718.342 318.214 718.882C317.218 719.422 316.45 720.202 315.91 721.222C315.37 722.242 315.1 723.472 315.1 724.912L315.1 734.848L312.544 734.848L312.544 708.136L315.1 708.136L315.1 721.132L314.596 720.16C315.196 718.792 316.156 717.718 317.476 716.938C318.796 716.158 320.368 715.768 322.192 715.768L322.192 715.768ZM336.88 734.848L336.88 715.948L339.328 715.948L339.328 721.096L339.076 720.196C339.604 718.756 340.492 717.658 341.74 716.902C342.988 716.146 344.536 715.768 346.384 715.768L346.384 718.252C346.288 718.252 346.192 718.246 346.096 718.234C346 718.222 345.904 718.216 345.808 718.216C343.816 718.216 342.256 718.822 341.128 720.034C340 721.246 339.436 722.968 339.436 725.2L339.436 734.848L336.88 734.848L336.88 734.848ZM351.028 734.848L351.028 715.948L353.584 715.948L353.584 734.848L351.028 734.848L351.028 734.848ZM352.324 711.772C351.796 711.772 351.352 711.592 350.992 711.232C350.632 710.872 350.452 710.44 350.452 709.936C350.452 709.432 350.632 709.006 350.992 708.658C351.352 708.31 351.796 708.136 352.324 708.136C352.852 708.136 353.296 708.304 353.656 708.64C354.016 708.976 354.196 709.396 354.196 709.9C354.196 710.428 354.022 710.872 353.674 711.232C353.326 711.592 352.876 711.772 352.324 711.772L352.324 711.772ZM365.788 735.028C364.228 735.028 362.752 734.806 361.36 734.362C359.968 733.918 358.876 733.36 358.084 732.688L359.236 730.672C360.004 731.248 360.988 731.746 362.188 732.166C363.388 732.586 364.648 732.796 365.968 732.796C367.768 732.796 369.064 732.514 369.856 731.95C370.648 731.386 371.044 730.636 371.044 729.7C371.044 729.004 370.822 728.458 370.378 728.062C369.934 727.666 369.352 727.366 368.632 727.162C367.912 726.958 367.108 726.784 366.22 726.64C365.332 726.496 364.45 726.328 363.574 726.136C362.698 725.944 361.9 725.662 361.18 725.29C360.46 724.918 359.878 724.408 359.434 723.76C358.99 723.112 358.768 722.248 358.768 721.168C358.768 720.136 359.056 719.212 359.632 718.396C360.208 717.58 361.054 716.938 362.17 716.47C363.286 716.002 364.648 715.768 366.256 715.768C367.48 715.768 368.704 715.93 369.928 716.254C371.152 716.578 372.16 717.004 372.952 717.532L371.836 719.584C370.996 719.008 370.096 718.594 369.136 718.342C368.176 718.09 367.216 717.964 366.256 717.964C364.552 717.964 363.298 718.258 362.494 718.846C361.69 719.434 361.288 720.184 361.288 721.096C361.288 721.816 361.51 722.38 361.954 722.788C362.398 723.196 362.986 723.514 363.718 723.742C364.45 723.97 365.254 724.156 366.13 724.3C367.006 724.444 367.882 724.618 368.758 724.822C369.634 725.026 370.438 725.302 371.17 725.65C371.902 725.998 372.49 726.49 372.934 727.126C373.378 727.762 373.6 728.596 373.6 729.628C373.6 730.732 373.294 731.686 372.682 732.49C372.07 733.294 371.182 733.918 370.018 734.362C368.854 734.806 367.444 735.028 365.788 735.028L365.788 735.028ZM384.256 735.028C382.48 735.028 381.112 734.548 380.152 733.588C379.192 732.628 378.712 731.272 378.712 729.52L378.712 711.772L381.268 711.772L381.268 729.376C381.268 730.48 381.55 731.332 382.114 731.932C382.678 732.532 383.488 732.832 384.544 732.832C385.672 732.832 386.608 732.508 387.352 731.86L388.252 733.696C387.748 734.152 387.142 734.488 386.434 734.704C385.726 734.92 385 735.028 384.256 735.028L384.256 735.028ZM375.328 718.072L375.328 715.948L387.028 715.948L387.028 718.072L375.328 718.072L375.328 718.072ZM399.916 735.028C398.092 735.028 396.454 734.614 395.002 733.786C393.55 732.958 392.404 731.818 391.564 730.366C390.724 728.914 390.304 727.252 390.304 725.38C390.304 723.484 390.724 721.816 391.564 720.376C392.404 718.936 393.544 717.808 394.984 716.992C396.424 716.176 398.068 715.768 399.916 715.768C401.788 715.768 403.45 716.176 404.902 716.992C406.354 717.808 407.494 718.936 408.322 720.376C409.15 721.816 409.564 723.484 409.564 725.38C409.564 727.252 409.15 728.914 408.322 730.366C407.494 731.818 406.348 732.958 404.884 733.786C403.42 734.614 401.764 735.028 399.916 735.028L399.916 735.028ZM399.916 732.76C401.284 732.76 402.496 732.454 403.552 731.842C404.608 731.23 405.442 730.366 406.054 729.25C406.666 728.134 406.972 726.844 406.972 725.38C406.972 723.892 406.666 722.596 406.054 721.492C405.442 720.388 404.608 719.53 403.552 718.918C402.496 718.306 401.296 718 399.952 718C398.608 718 397.408 718.306 396.352 718.918C395.296 719.53 394.456 720.388 393.832 721.492C393.208 722.596 392.896 723.892 392.896 725.38C392.896 726.844 393.208 728.134 393.832 729.25C394.456 730.366 395.296 731.23 396.352 731.842C397.408 732.454 398.596 732.76 399.916 732.76L399.916 732.76ZM422.632 735.028C420.76 735.028 419.086 734.614 417.61 733.786C416.134 732.958 414.976 731.818 414.136 730.366C413.296 728.914 412.876 727.252 412.876 725.38C412.876 723.484 413.296 721.816 414.136 720.376C414.976 718.936 416.134 717.808 417.61 716.992C419.086 716.176 420.76 715.768 422.632 715.768C424.24 715.768 425.692 716.08 426.988 716.704C428.284 717.328 429.304 718.264 430.048 719.512L428.14 720.808C427.492 719.848 426.688 719.14 425.728 718.684C424.768 718.228 423.724 718 422.596 718C421.252 718 420.04 718.306 418.96 718.918C417.88 719.53 417.028 720.388 416.404 721.492C415.78 722.596 415.468 723.892 415.468 725.38C415.468 726.868 415.78 728.164 416.404 729.268C417.028 730.372 417.88 731.23 418.96 731.842C420.04 732.454 421.252 732.76 422.596 732.76C423.724 732.76 424.768 732.532 425.728 732.076C426.688 731.62 427.492 730.924 428.14 729.988L430.048 731.284C429.304 732.508 428.284 733.438 426.988 734.074C425.692 734.71 424.24 735.028 422.632 735.028L422.632 735.028ZM442.756 735.028C440.788 735.028 439.06 734.614 437.572 733.786C436.084 732.958 434.92 731.818 434.08 730.366C433.24 728.914 432.82 727.252 432.82 725.38C432.82 723.508 433.222 721.852 434.026 720.412C434.83 718.972 435.934 717.838 437.338 717.01C438.742 716.182 440.32 715.768 442.072 715.768C443.848 715.768 445.426 716.17 446.806 716.974C448.186 717.778 449.272 718.906 450.064 720.358C450.856 721.81 451.252 723.484 451.252 725.38C451.252 725.5 451.246 725.626 451.234 725.758C451.222 725.89 451.216 726.028 451.216 726.172L434.764 726.172L434.764 724.264L449.848 724.264L448.84 725.02C448.84 723.652 448.546 722.434 447.958 721.366C447.37 720.298 446.572 719.464 445.564 718.864C444.556 718.264 443.392 717.964 442.072 717.964C440.776 717.964 439.612 718.264 438.58 718.864C437.548 719.464 436.744 720.304 436.168 721.384C435.592 722.464 435.304 723.7 435.304 725.092L435.304 725.488C435.304 726.928 435.622 728.194 436.258 729.286C436.894 730.378 437.782 731.23 438.922 731.842C440.062 732.454 441.364 732.76 442.828 732.76C443.98 732.76 445.054 732.556 446.05 732.148C447.046 731.74 447.904 731.116 448.624 730.276L450.064 731.932C449.224 732.94 448.174 733.708 446.914 734.236C445.654 734.764 444.268 735.028 442.756 735.028L442.756 735.028ZM466.12 715.768C467.656 715.768 469.006 716.062 470.17 716.65C471.334 717.238 472.246 718.132 472.906 719.332C473.566 720.532 473.896 722.044 473.896 723.868L473.896 734.848L471.34 734.848L471.34 724.12C471.34 722.128 470.842 720.622 469.846 719.602C468.85 718.582 467.452 718.072 465.652 718.072C464.308 718.072 463.138 718.342 462.142 718.882C461.146 719.422 460.378 720.202 459.838 721.222C459.298 722.242 459.028 723.472 459.028 724.912L459.028 734.848L456.472 734.848L456.472 715.948L458.92 715.948L458.92 721.132L458.524 720.16C459.124 718.792 460.084 717.718 461.404 716.938C462.724 716.158 464.296 715.768 466.12 715.768L466.12 715.768ZM486.784 735.028C485.008 735.028 483.64 734.548 482.68 733.588C481.72 732.628 481.24 731.272 481.24 729.52L481.24 711.772L483.796 711.772L483.796 729.376C483.796 730.48 484.078 731.332 484.642 731.932C485.206 732.532 486.016 732.832 487.072 732.832C488.2 732.832 489.136 732.508 489.88 731.86L490.78 733.696C490.276 734.152 489.67 734.488 488.962 734.704C488.254 734.92 487.528 735.028 486.784 735.028L486.784 735.028ZM477.856 718.072L477.856 715.948L489.556 715.948L489.556 718.072L477.856 718.072L477.856 718.072ZM495.424 734.848L495.424 715.948L497.872 715.948L497.872 721.096L497.62 720.196C498.148 718.756 499.036 717.658 500.284 716.902C501.532 716.146 503.08 715.768 504.928 715.768L504.928 718.252C504.832 718.252 504.736 718.246 504.64 718.234C504.544 718.222 504.448 718.216 504.352 718.216C502.36 718.216 500.8 718.822 499.672 720.034C498.544 721.246 497.98 722.968 497.98 725.2L497.98 734.848L495.424 734.848L495.424 734.848ZM509.572 734.848L509.572 715.948L512.128 715.948L512.128 734.848L509.572 734.848L509.572 734.848ZM510.868 711.772C510.34 711.772 509.896 711.592 509.536 711.232C509.176 710.872 508.996 710.44 508.996 709.936C508.996 709.432 509.176 709.006 509.536 708.658C509.896 708.31 510.34 708.136 510.868 708.136C511.396 708.136 511.84 708.304 512.2 708.64C512.56 708.976 512.74 709.396 512.74 709.9C512.74 710.428 512.566 710.872 512.218 711.232C511.87 711.592 511.42 711.772 510.868 711.772L510.868 711.772ZM521.272 729.952L521.344 726.676L533.116 715.948L536.248 715.948L527.932 723.904L526.492 725.128L521.272 729.952L521.272 729.952ZM519.256 734.848L519.256 708.136L521.812 708.136L521.812 734.848L519.256 734.848L519.256 734.848ZM533.908 734.848L526.024 725.02L527.68 723.04L537.04 734.848L533.908 734.848L533.908 734.848Z" id="christocentrik" fill="#A2B0B0" fill-rule="evenodd" stroke="none" />
        </g>
      </g>
    </g>
    <g id="Mask-Group" clip-path="url(#clip_1)">
      <path d="M649 0L649 0L649 789L0 789L0 0L649 0L649 0Z" id="path_1" fill="none" stroke="none" />
      <g clip-path="url(#clip_2)">
        <g id="Instagram-Post-Square">
          <path d="M649 0L649 0L649 789L0 789L0 0L649 0L649 0Z" id="Instagram-Post-Square" fill="#0C0E0E" fill-opacity="0" stroke="none" />
          <g id="Mask-Group" transform="translate(68 56)">
            <path d="M512 0L512 0L512 512L0 512L0 0L512 0L512 0Z" id="path_2" fill="none" stroke="none" />
            <g clip-path="url(#clip_3)">
              <g id="svg">
                <path d="M512 0L512 0L512 512L0 512L0 0L512 0L512 0Z" id="svg#1" fill="none" stroke="none" />
                <g id="Mask-Group">
                  <path d="M256 0C397.404 0 512 114.596 512 256L512 256C512 397.404 397.404 512 256 512L256 512C114.596 512 0 397.404 0 256L0 256C0 114.596 114.596 0 256 0L256 0L256 0Z" id="path_1#1" fill="none" stroke="none" />
                  <g id="Mask-Group">
                    <path d="M256 0C397.404 0 512 114.596 512 256L512 256C512 397.404 397.404 512 256 512L256 512C114.596 512 0 397.404 0 256L0 256C0 114.596 114.596 0 256 0L256 0L256 0Z" id="path_3" fill="none" stroke="none" />
                    <g clip-path="url(#clip_4)">
                      <g id="Group" transform="translate(-3 0)">
                        <g id="Shamayim---Logo">
                          <path d="M259 0C400.404 0 515 114.596 515 256L515 256C515 397.404 400.404 512 259 512L259 512C117.596 512 3 397.404 3 256L3 256C3 114.596 117.596 0 259 0L259 0L259 0Z" id="Shamayim---Logo#1" fill="#03666F" stroke="none" />
                          <path d="M274.5 290C177.905 290 85.4028 307.525 0 339.569L0 522L519 522L519 329.009C442.083 303.695 359.891 290 274.5 290L274.5 290L274.5 290L274.5 290Z" id="Vector" fill="#0C0E0E" fill-rule="evenodd" stroke="none" />
                          <path d="M259 105L271.23 144.333L304 150L271.23 161.49L259 251.761L246.804 161.49L214 150L246.804 144.333L259 105L259 105L259 105Z" id="Christ" fill="#FFFFFF" fill-rule="evenodd" stroke="none" />
                          <path d="M40.3472 158.682C40.3472 156.342 42.2435 154.446 44.5828 154.446C46.9221 154.446 48.8185 156.342 48.8185 158.682C48.8185 161.021 46.9221 162.917 44.5828 162.917C42.2435 162.917 40.3472 161.021 40.3472 158.682L40.3472 158.682L40.3472 158.682ZM106.201 109.064C106.201 106.724 108.097 104.828 110.436 104.828C112.776 104.828 114.672 106.724 114.672 109.064C114.672 111.403 112.776 113.299 110.436 113.299C108.097 113.299 106.201 111.403 106.201 109.064L106.201 109.064L106.201 109.064ZM177.844 58.2357C177.844 55.8964 179.74 54 182.08 54C184.419 54 186.315 55.8964 186.315 58.2357C186.315 60.575 184.419 62.4713 182.08 62.4713C179.74 62.4713 177.844 60.575 177.844 58.2357L177.844 58.2357L177.844 58.2357ZM259.4 39.5C259.4 37.567 260.967 36 262.9 36C264.833 36 266.4 37.567 266.4 39.5C266.4 41.433 264.833 43 262.9 43C260.967 43 259.4 41.433 259.4 39.5L259.4 39.5L259.4 39.5ZM454.736 184.096C454.736 181.756 456.632 179.86 458.971 179.86C461.311 179.86 463.207 181.756 463.207 184.096C463.207 186.435 461.311 188.331 458.971 188.331C456.632 188.331 454.736 186.435 454.736 184.096L454.736 184.096L454.736 184.096ZM386.965 84.8599C386.965 82.5206 388.861 80.6242 391.201 80.6242C393.54 80.6242 395.436 82.5206 395.436 84.8599C395.436 87.1992 393.54 89.0955 391.201 89.0955C388.861 89.0955 386.965 87.1992 386.965 84.8599L386.965 84.8599L386.965 84.8599ZM186 239.764C186 237.425 187.896 235.529 190.236 235.529C192.575 235.529 194.471 237.425 194.471 239.764C194.471 242.104 192.575 244 190.236 244C187.896 244 186 242.104 186 239.764L186 239.764L186 239.764ZM98.4712 206.764C98.4712 204.425 100.368 202.529 102.707 202.529C105.046 202.529 106.943 204.425 106.943 206.764C106.943 209.104 105.046 211 102.707 211C100.368 211 98.4712 209.104 98.4712 206.764L98.4712 206.764L98.4712 206.764ZM455.946 142.344C455.946 138.334 459.197 135.083 463.207 135.083C467.217 135.083 470.468 138.334 470.468 142.344C470.468 146.354 467.217 149.605 463.207 149.605C459.197 149.605 455.946 146.354 455.946 142.344L455.946 142.344L455.946 142.344ZM349.449 213.745C349.449 209.735 352.7 206.484 356.71 206.484C360.721 206.484 363.971 209.735 363.971 213.745C363.971 217.755 360.721 221.006 356.71 221.006C352.7 221.006 349.449 217.755 349.449 213.745L349.449 213.745L349.449 213.745ZM349.449 99.3822C349.449 98.3796 350.262 97.5669 351.264 97.5669C352.267 97.5669 353.08 98.3796 353.08 99.3822C353.08 100.385 352.267 101.197 351.264 101.197C350.262 101.197 349.449 100.385 349.449 99.3822L349.449 99.3822L349.449 99.3822ZM343 175.082C343 174.08 343.813 173.267 344.815 173.267C345.818 173.267 346.631 174.08 346.631 175.082C346.631 176.085 345.818 176.897 344.815 176.897C343.813 176.897 343 176.085 343 175.082L343 175.082L343 175.082ZM195.28 103.185C195.28 102.182 196.092 101.369 197.095 101.369C198.098 101.369 198.91 102.182 198.91 103.185C198.91 104.187 198.098 105 197.095 105C196.092 105 195.28 104.187 195.28 103.185L195.28 103.185L195.28 103.185ZM186 181.815C186 180.813 186.813 180 187.815 180C188.818 180 189.631 180.813 189.631 181.815C189.631 182.818 188.818 183.631 187.815 183.631C186.813 183.631 186 182.818 186 181.815L186 181.815L186 181.815ZM19.0669 228.268C19.0669 224.257 22.3178 221.006 26.328 221.006C30.3383 221.006 33.5892 224.257 33.5892 228.268C33.5892 232.278 30.3383 235.529 26.328 235.529C22.3178 235.529 19.0669 232.278 19.0669 228.268L19.0669 228.268L19.0669 228.268ZM486.9 236.261C486.9 232.251 490.151 229 494.161 229C498.171 229 501.422 232.251 501.422 236.261C501.422 240.271 498.171 243.522 494.161 243.522C490.151 243.522 486.9 240.271 486.9 236.261L486.9 236.261L486.9 236.261ZM349 241.383C349 240.38 349.813 239.568 350.815 239.568C351.818 239.568 352.631 240.38 352.631 241.383C352.631 242.385 351.818 243.198 350.815 243.198C349.813 243.198 349 242.385 349 241.383L349 241.383L349 241.383ZM89.3694 234.185C89.3694 233.182 90.1821 232.369 91.1847 232.369C92.1872 232.369 93 233.182 93 234.185C93 235.187 92.1872 236 91.1847 236C90.1821 236 89.3694 235.187 89.3694 234.185L89.3694 234.185L89.3694 234.185ZM384.545 157.471C384.545 155.8 385.899 154.446 387.57 154.446C389.241 154.446 390.596 155.8 390.596 157.471C390.596 159.142 389.241 160.497 387.57 160.497C385.899 160.497 384.545 159.142 384.545 157.471L384.545 157.471L384.545 157.471ZM403.896 224.471C403.896 222.8 405.25 221.446 406.921 221.446C408.592 221.446 409.947 222.8 409.947 224.471C409.947 226.142 408.592 227.497 406.921 227.497C405.25 227.497 403.896 226.142 403.896 224.471L403.896 224.471L403.896 224.471ZM337.696 57.4713C337.696 55.8004 339.05 54.4459 340.721 54.4459C342.392 54.4459 343.747 55.8004 343.747 57.4713C343.747 59.1423 342.392 60.4968 340.721 60.4968C339.05 60.4968 337.696 59.1423 337.696 57.4713L337.696 57.4713L337.696 57.4713ZM270.787 83.6497C270.787 81.9788 272.141 80.6242 273.812 80.6242C275.483 80.6242 276.838 81.9788 276.838 83.6497C276.838 85.3206 275.483 86.6752 273.812 86.6752C272.141 86.6752 270.787 85.3206 270.787 83.6497L270.787 83.6497L270.787 83.6497ZM131.615 169.573C131.615 167.902 132.969 166.548 134.64 166.548C136.311 166.548 137.666 167.902 137.666 169.573C137.666 171.244 136.311 172.599 134.64 172.599C132.969 172.599 131.615 171.244 131.615 169.573L131.615 169.573L131.615 169.573ZM438.277 221.611C438.277 219.272 440.174 217.376 442.513 217.376C444.852 217.376 446.748 219.272 446.748 221.611C446.748 223.951 444.852 225.847 442.513 225.847C440.174 225.847 438.277 223.951 438.277 221.611L438.277 221.611L438.277 221.611Z" id="stars" fill="#FFFFFF" fill-rule="evenodd" stroke="none" />
                        </g>
                      </g>
                    </g>
                  </g>
                </g>
              </g>
            </g>
          </g>
          <path d="M130.44 679.92C126.92 679.92 123.573 679.44 120.4 678.48C117.227 677.52 114.733 676.347 112.92 674.96L116.12 668.88C117.933 670.107 120.173 671.147 122.84 672C125.507 672.853 128.227 673.28 131 673.28C134.573 673.28 137.147 672.773 138.72 671.76C140.293 670.747 141.08 669.333 141.08 667.52C141.08 666.187 140.6 665.147 139.64 664.4C138.68 663.653 137.413 663.093 135.84 662.72C134.267 662.347 132.52 662.013 130.6 661.72C128.68 661.427 126.76 661.053 124.84 660.6C122.92 660.147 121.16 659.507 119.56 658.68C117.96 657.853 116.68 656.707 115.72 655.24C114.76 653.773 114.28 651.813 114.28 649.36C114.28 646.8 115 644.56 116.44 642.64C117.88 640.72 119.92 639.24 122.56 638.2C125.2 637.16 128.333 636.64 131.96 636.64C134.733 636.64 137.547 636.973 140.4 637.64C143.253 638.307 145.587 639.253 147.4 640.48L144.12 646.56C142.2 645.28 140.2 644.4 138.12 643.92C136.04 643.44 133.96 643.2 131.88 643.2C128.52 643.2 126.013 643.747 124.36 644.84C122.707 645.933 121.88 647.333 121.88 649.04C121.88 650.48 122.373 651.587 123.36 652.36C124.347 653.133 125.627 653.733 127.2 654.16C128.773 654.587 130.52 654.947 132.44 655.24C134.36 655.533 136.28 655.907 138.2 656.36C140.12 656.813 141.867 657.44 143.44 658.24C145.013 659.04 146.293 660.16 147.28 661.6C148.267 663.04 148.76 664.96 148.76 667.36C148.76 669.92 148.013 672.133 146.52 674C145.027 675.867 142.92 677.32 140.2 678.36C137.48 679.4 134.227 679.92 130.44 679.92L130.44 679.92ZM181 636.64C184.467 636.64 187.52 637.307 190.16 638.64C192.8 639.973 194.867 642 196.36 644.72C197.853 647.44 198.6 650.88 198.6 655.04L198.6 679.44L190.92 679.44L190.92 655.92C190.92 651.813 189.92 648.72 187.92 646.64C185.92 644.56 183.107 643.52 179.48 643.52C176.76 643.52 174.387 644.053 172.36 645.12C170.333 646.187 168.773 647.76 167.68 649.84C166.587 651.92 166.04 654.507 166.04 657.6L166.04 679.44L158.36 679.44L158.36 620.08L166.04 620.08L166.04 648.48L164.52 645.44C165.907 642.667 168.04 640.507 170.92 638.96C173.8 637.413 177.16 636.64 181 636.64L181 636.64ZM239.16 679.44L239.16 670.48L238.76 668.8L238.76 653.52C238.76 650.267 237.813 647.747 235.92 645.96C234.027 644.173 231.187 643.28 227.4 643.28C224.893 643.28 222.44 643.693 220.04 644.52C217.64 645.347 215.613 646.453 213.96 647.84L210.76 642.08C212.947 640.32 215.573 638.973 218.64 638.04C221.707 637.107 224.92 636.64 228.28 636.64C234.093 636.64 238.573 638.053 241.72 640.88C244.867 643.707 246.44 648.027 246.44 653.84L246.44 679.44L239.16 679.44L239.16 679.44ZM225.24 679.92C222.093 679.92 219.333 679.387 216.96 678.32C214.587 677.253 212.76 675.773 211.48 673.88C210.2 671.987 209.56 669.84 209.56 667.44C209.56 665.147 210.107 663.067 211.2 661.2C212.293 659.333 214.08 657.84 216.56 656.72C219.04 655.6 222.387 655.04 226.6 655.04L240.04 655.04L240.04 660.56L226.92 660.56C223.08 660.56 220.493 661.2 219.16 662.48C217.827 663.76 217.16 665.307 217.16 667.12C217.16 669.2 217.987 670.867 219.64 672.12C221.293 673.373 223.587 674 226.52 674C229.4 674 231.92 673.36 234.08 672.08C236.24 670.8 237.8 668.933 238.76 666.48L240.28 671.76C239.267 674.267 237.48 676.253 234.92 677.72C232.36 679.187 229.133 679.92 225.24 679.92L225.24 679.92ZM313.72 636.64C317.133 636.64 320.147 637.307 322.76 638.64C325.373 639.973 327.413 642 328.88 644.72C330.347 647.44 331.08 650.88 331.08 655.04L331.08 679.44L323.4 679.44L323.4 655.92C323.4 651.813 322.44 648.72 320.52 646.64C318.6 644.56 315.907 643.52 312.44 643.52C309.88 643.52 307.64 644.053 305.72 645.12C303.8 646.187 302.32 647.76 301.28 649.84C300.24 651.92 299.72 654.507 299.72 657.6L299.72 679.44L292.04 679.44L292.04 655.92C292.04 651.813 291.093 648.72 289.2 646.64C287.307 644.56 284.6 643.52 281.08 643.52C278.573 643.52 276.36 644.053 274.44 645.12C272.52 646.187 271.027 647.76 269.96 649.84C268.893 651.92 268.36 654.507 268.36 657.6L268.36 679.44L260.68 679.44L260.68 637.04L268.04 637.04L268.04 648.32L266.84 645.44C268.173 642.667 270.227 640.507 273 638.96C275.773 637.413 279 636.64 282.68 636.64C286.733 636.64 290.227 637.64 293.16 639.64C296.093 641.64 298.013 644.667 298.92 648.72L295.8 647.44C297.08 644.187 299.32 641.573 302.52 639.6C305.72 637.627 309.453 636.64 313.72 636.64L313.72 636.64ZM371.56 679.44L371.56 670.48L371.16 668.8L371.16 653.52C371.16 650.267 370.213 647.747 368.32 645.96C366.427 644.173 363.587 643.28 359.8 643.28C357.293 643.28 354.84 643.693 352.44 644.52C350.04 645.347 348.013 646.453 346.36 647.84L343.16 642.08C345.347 640.32 347.973 638.973 351.04 638.04C354.107 637.107 357.32 636.64 360.68 636.64C366.493 636.64 370.973 638.053 374.12 640.88C377.267 643.707 378.84 648.027 378.84 653.84L378.84 679.44L371.56 679.44L371.56 679.44ZM357.64 679.92C354.493 679.92 351.733 679.387 349.36 678.32C346.987 677.253 345.16 675.773 343.88 673.88C342.6 671.987 341.96 669.84 341.96 667.44C341.96 665.147 342.507 663.067 343.6 661.2C344.693 659.333 346.48 657.84 348.96 656.72C351.44 655.6 354.787 655.04 359 655.04L372.44 655.04L372.44 660.56L359.32 660.56C355.48 660.56 352.893 661.2 351.56 662.48C350.227 663.76 349.56 665.307 349.56 667.12C349.56 669.2 350.387 670.867 352.04 672.12C353.693 673.373 355.987 674 358.92 674C361.8 674 364.32 673.36 366.48 672.08C368.64 670.8 370.2 668.933 371.16 666.48L372.68 671.76C371.667 674.267 369.88 676.253 367.32 677.72C364.76 679.187 361.533 679.92 357.64 679.92L357.64 679.92ZM394.12 695.44C392.093 695.44 390.12 695.107 388.2 694.44C386.28 693.773 384.627 692.8 383.24 691.52L386.52 685.76C387.587 686.773 388.76 687.547 390.04 688.08C391.32 688.613 392.68 688.88 394.12 688.88C395.987 688.88 397.533 688.4 398.76 687.44C399.987 686.48 401.133 684.773 402.2 682.32L404.84 676.48L405.64 675.52L422.28 637.04L429.8 637.04L409.24 683.68C408.013 686.667 406.64 689.013 405.12 690.72C403.6 692.427 401.933 693.64 400.12 694.36C398.307 695.08 396.307 695.44 394.12 695.44L394.12 695.44ZM404.2 680.8L384.84 637.04L392.84 637.04L409.32 674.8L404.2 680.8L404.2 680.8ZM437 679.44L437 637.04L444.68 637.04L444.68 679.44L437 679.44L437 679.44ZM440.84 628.88C439.347 628.88 438.107 628.4 437.12 627.44C436.133 626.48 435.64 625.307 435.64 623.92C435.64 622.48 436.133 621.28 437.12 620.32C438.107 619.36 439.347 618.88 440.84 618.88C442.333 618.88 443.573 619.347 444.56 620.28C445.547 621.213 446.04 622.373 446.04 623.76C446.04 625.2 445.56 626.413 444.6 627.4C443.64 628.387 442.387 628.88 440.84 628.88L440.84 628.88ZM512.36 636.64C515.773 636.64 518.787 637.307 521.4 638.64C524.013 639.973 526.053 642 527.52 644.72C528.987 647.44 529.72 650.88 529.72 655.04L529.72 679.44L522.04 679.44L522.04 655.92C522.04 651.813 521.08 648.72 519.16 646.64C517.24 644.56 514.547 643.52 511.08 643.52C508.52 643.52 506.28 644.053 504.36 645.12C502.44 646.187 500.96 647.76 499.92 649.84C498.88 651.92 498.36 654.507 498.36 657.6L498.36 679.44L490.68 679.44L490.68 655.92C490.68 651.813 489.733 648.72 487.84 646.64C485.947 644.56 483.24 643.52 479.72 643.52C477.213 643.52 475 644.053 473.08 645.12C471.16 646.187 469.667 647.76 468.6 649.84C467.533 651.92 467 654.507 467 657.6L467 679.44L459.32 679.44L459.32 637.04L466.68 637.04L466.68 648.32L465.48 645.44C466.813 642.667 468.867 640.507 471.64 638.96C474.413 637.413 477.64 636.64 481.32 636.64C485.373 636.64 488.867 637.64 491.8 639.64C494.733 641.64 496.653 644.667 497.56 648.72L494.44 647.44C495.72 644.187 497.96 641.573 501.16 639.6C504.36 637.627 508.093 636.64 512.36 636.64L512.36 636.64Z" id="shamayim" fill="#03666F" fill-rule="evenodd" stroke="none" />
          <path d="M300.412 735.028C298.54 735.028 296.866 734.614 295.39 733.786C293.914 732.958 292.756 731.818 291.916 730.366C291.076 728.914 290.656 727.252 290.656 725.38C290.656 723.484 291.076 721.816 291.916 720.376C292.756 718.936 293.914 717.808 295.39 716.992C296.866 716.176 298.54 715.768 300.412 715.768C302.02 715.768 303.472 716.08 304.768 716.704C306.064 717.328 307.084 718.264 307.828 719.512L305.92 720.808C305.272 719.848 304.468 719.14 303.508 718.684C302.548 718.228 301.504 718 300.376 718C299.032 718 297.82 718.306 296.74 718.918C295.66 719.53 294.808 720.388 294.184 721.492C293.56 722.596 293.248 723.892 293.248 725.38C293.248 726.868 293.56 728.164 294.184 729.268C294.808 730.372 295.66 731.23 296.74 731.842C297.82 732.454 299.032 732.76 300.376 732.76C301.504 732.76 302.548 732.532 303.508 732.076C304.468 731.62 305.272 730.924 305.92 729.988L307.828 731.284C307.084 732.508 306.064 733.438 304.768 734.074C303.472 734.71 302.02 735.028 300.412 735.028L300.412 735.028ZM322.192 715.768C323.728 715.768 325.078 716.062 326.242 716.65C327.406 717.238 328.318 718.132 328.978 719.332C329.638 720.532 329.968 722.044 329.968 723.868L329.968 734.848L327.412 734.848L327.412 724.12C327.412 722.128 326.914 720.622 325.918 719.602C324.922 718.582 323.524 718.072 321.724 718.072C320.38 718.072 319.21 718.342 318.214 718.882C317.218 719.422 316.45 720.202 315.91 721.222C315.37 722.242 315.1 723.472 315.1 724.912L315.1 734.848L312.544 734.848L312.544 708.136L315.1 708.136L315.1 721.132L314.596 720.16C315.196 718.792 316.156 717.718 317.476 716.938C318.796 716.158 320.368 715.768 322.192 715.768L322.192 715.768ZM336.88 734.848L336.88 715.948L339.328 715.948L339.328 721.096L339.076 720.196C339.604 718.756 340.492 717.658 341.74 716.902C342.988 716.146 344.536 715.768 346.384 715.768L346.384 718.252C346.288 718.252 346.192 718.246 346.096 718.234C346 718.222 345.904 718.216 345.808 718.216C343.816 718.216 342.256 718.822 341.128 720.034C340 721.246 339.436 722.968 339.436 725.2L339.436 734.848L336.88 734.848L336.88 734.848ZM351.028 734.848L351.028 715.948L353.584 715.948L353.584 734.848L351.028 734.848L351.028 734.848ZM352.324 711.772C351.796 711.772 351.352 711.592 350.992 711.232C350.632 710.872 350.452 710.44 350.452 709.936C350.452 709.432 350.632 709.006 350.992 708.658C351.352 708.31 351.796 708.136 352.324 708.136C352.852 708.136 353.296 708.304 353.656 708.64C354.016 708.976 354.196 709.396 354.196 709.9C354.196 710.428 354.022 710.872 353.674 711.232C353.326 711.592 352.876 711.772 352.324 711.772L352.324 711.772ZM365.788 735.028C364.228 735.028 362.752 734.806 361.36 734.362C359.968 733.918 358.876 733.36 358.084 732.688L359.236 730.672C360.004 731.248 360.988 731.746 362.188 732.166C363.388 732.586 364.648 732.796 365.968 732.796C367.768 732.796 369.064 732.514 369.856 731.95C370.648 731.386 371.044 730.636 371.044 729.7C371.044 729.004 370.822 728.458 370.378 728.062C369.934 727.666 369.352 727.366 368.632 727.162C367.912 726.958 367.108 726.784 366.22 726.64C365.332 726.496 364.45 726.328 363.574 726.136C362.698 725.944 361.9 725.662 361.18 725.29C360.46 724.918 359.878 724.408 359.434 723.76C358.99 723.112 358.768 722.248 358.768 721.168C358.768 720.136 359.056 719.212 359.632 718.396C360.208 717.58 361.054 716.938 362.17 716.47C363.286 716.002 364.648 715.768 366.256 715.768C367.48 715.768 368.704 715.93 369.928 716.254C371.152 716.578 372.16 717.004 372.952 717.532L371.836 719.584C370.996 719.008 370.096 718.594 369.136 718.342C368.176 718.09 367.216 717.964 366.256 717.964C364.552 717.964 363.298 718.258 362.494 718.846C361.69 719.434 361.288 720.184 361.288 721.096C361.288 721.816 361.51 722.38 361.954 722.788C362.398 723.196 362.986 723.514 363.718 723.742C364.45 723.97 365.254 724.156 366.13 724.3C367.006 724.444 367.882 724.618 368.758 724.822C369.634 725.026 370.438 725.302 371.17 725.65C371.902 725.998 372.49 726.49 372.934 727.126C373.378 727.762 373.6 728.596 373.6 729.628C373.6 730.732 373.294 731.686 372.682 732.49C372.07 733.294 371.182 733.918 370.018 734.362C368.854 734.806 367.444 735.028 365.788 735.028L365.788 735.028ZM384.256 735.028C382.48 735.028 381.112 734.548 380.152 733.588C379.192 732.628 378.712 731.272 378.712 729.52L378.712 711.772L381.268 711.772L381.268 729.376C381.268 730.48 381.55 731.332 382.114 731.932C382.678 732.532 383.488 732.832 384.544 732.832C385.672 732.832 386.608 732.508 387.352 731.86L388.252 733.696C387.748 734.152 387.142 734.488 386.434 734.704C385.726 734.92 385 735.028 384.256 735.028L384.256 735.028ZM375.328 718.072L375.328 715.948L387.028 715.948L387.028 718.072L375.328 718.072L375.328 718.072ZM399.916 735.028C398.092 735.028 396.454 734.614 395.002 733.786C393.55 732.958 392.404 731.818 391.564 730.366C390.724 728.914 390.304 727.252 390.304 725.38C390.304 723.484 390.724 721.816 391.564 720.376C392.404 718.936 393.544 717.808 394.984 716.992C396.424 716.176 398.068 715.768 399.916 715.768C401.788 715.768 403.45 716.176 404.902 716.992C406.354 717.808 407.494 718.936 408.322 720.376C409.15 721.816 409.564 723.484 409.564 725.38C409.564 727.252 409.15 728.914 408.322 730.366C407.494 731.818 406.348 732.958 404.884 733.786C403.42 734.614 401.764 735.028 399.916 735.028L399.916 735.028ZM399.916 732.76C401.284 732.76 402.496 732.454 403.552 731.842C404.608 731.23 405.442 730.366 406.054 729.25C406.666 728.134 406.972 726.844 406.972 725.38C406.972 723.892 406.666 722.596 406.054 721.492C405.442 720.388 404.608 719.53 403.552 718.918C402.496 718.306 401.296 718 399.952 718C398.608 718 397.408 718.306 396.352 718.918C395.296 719.53 394.456 720.388 393.832 721.492C393.208 722.596 392.896 723.892 392.896 725.38C392.896 726.844 393.208 728.134 393.832 729.25C394.456 730.366 395.296 731.23 396.352 731.842C397.408 732.454 398.596 732.76 399.916 732.76L399.916 732.76ZM422.632 735.028C420.76 735.028 419.086 734.614 417.61 733.786C416.134 732.958 414.976 731.818 414.136 730.366C413.296 728.914 412.876 727.252 412.876 725.38C412.876 723.484 413.296 721.816 414.136 720.376C414.976 718.936 416.134 717.808 417.61 716.992C419.086 716.176 420.76 715.768 422.632 715.768C424.24 715.768 425.692 716.08 426.988 716.704C428.284 717.328 429.304 718.264 430.048 719.512L428.14 720.808C427.492 719.848 426.688 719.14 425.728 718.684C424.768 718.228 423.724 718 422.596 718C421.252 718 420.04 718.306 418.96 718.918C417.88 719.53 417.028 720.388 416.404 721.492C415.78 722.596 415.468 723.892 415.468 725.38C415.468 726.868 415.78 728.164 416.404 729.268C417.028 730.372 417.88 731.23 418.96 731.842C420.04 732.454 421.252 732.76 422.596 732.76C423.724 732.76 424.768 732.532 425.728 732.076C426.688 731.62 427.492 730.924 428.14 729.988L430.048 731.284C429.304 732.508 428.284 733.438 426.988 734.074C425.692 734.71 424.24 735.028 422.632 735.028L422.632 735.028ZM442.756 735.028C440.788 735.028 439.06 734.614 437.572 733.786C436.084 732.958 434.92 731.818 434.08 730.366C433.24 728.914 432.82 727.252 432.82 725.38C432.82 723.508 433.222 721.852 434.026 720.412C434.83 718.972 435.934 717.838 437.338 717.01C438.742 716.182 440.32 715.768 442.072 715.768C443.848 715.768 445.426 716.17 446.806 716.974C448.186 717.778 449.272 718.906 450.064 720.358C450.856 721.81 451.252 723.484 451.252 725.38C451.252 725.5 451.246 725.626 451.234 725.758C451.222 725.89 451.216 726.028 451.216 726.172L434.764 726.172L434.764 724.264L449.848 724.264L448.84 725.02C448.84 723.652 448.546 722.434 447.958 721.366C447.37 720.298 446.572 719.464 445.564 718.864C444.556 718.264 443.392 717.964 442.072 717.964C440.776 717.964 439.612 718.264 438.58 718.864C437.548 719.464 436.744 720.304 436.168 721.384C435.592 722.464 435.304 723.7 435.304 725.092L435.304 725.488C435.304 726.928 435.622 728.194 436.258 729.286C436.894 730.378 437.782 731.23 438.922 731.842C440.062 732.454 441.364 732.76 442.828 732.76C443.98 732.76 445.054 732.556 446.05 732.148C447.046 731.74 447.904 731.116 448.624 730.276L450.064 731.932C449.224 732.94 448.174 733.708 446.914 734.236C445.654 734.764 444.268 735.028 442.756 735.028L442.756 735.028ZM466.12 715.768C467.656 715.768 469.006 716.062 470.17 716.65C471.334 717.238 472.246 718.132 472.906 719.332C473.566 720.532 473.896 722.044 473.896 723.868L473.896 734.848L471.34 734.848L471.34 724.12C471.34 722.128 470.842 720.622 469.846 719.602C468.85 718.582 467.452 718.072 465.652 718.072C464.308 718.072 463.138 718.342 462.142 718.882C461.146 719.422 460.378 720.202 459.838 721.222C459.298 722.242 459.028 723.472 459.028 724.912L459.028 734.848L456.472 734.848L456.472 715.948L458.92 715.948L458.92 721.132L458.524 720.16C459.124 718.792 460.084 717.718 461.404 716.938C462.724 716.158 464.296 715.768 466.12 715.768L466.12 715.768ZM486.784 735.028C485.008 735.028 483.64 734.548 482.68 733.588C481.72 732.628 481.24 731.272 481.24 729.52L481.24 711.772L483.796 711.772L483.796 729.376C483.796 730.48 484.078 731.332 484.642 731.932C485.206 732.532 486.016 732.832 487.072 732.832C488.2 732.832 489.136 732.508 489.88 731.86L490.78 733.696C490.276 734.152 489.67 734.488 488.962 734.704C488.254 734.92 487.528 735.028 486.784 735.028L486.784 735.028ZM477.856 718.072L477.856 715.948L489.556 715.948L489.556 718.072L477.856 718.072L477.856 718.072ZM495.424 734.848L495.424 715.948L497.872 715.948L497.872 721.096L497.62 720.196C498.148 718.756 499.036 717.658 500.284 716.902C501.532 716.146 503.08 715.768 504.928 715.768L504.928 718.252C504.832 718.252 504.736 718.246 504.64 718.234C504.544 718.222 504.448 718.216 504.352 718.216C502.36 718.216 500.8 718.822 499.672 720.034C498.544 721.246 497.98 722.968 497.98 725.2L497.98 734.848L495.424 734.848L495.424 734.848ZM509.572 734.848L509.572 715.948L512.128 715.948L512.128 734.848L509.572 734.848L509.572 734.848ZM510.868 711.772C510.34 711.772 509.896 711.592 509.536 711.232C509.176 710.872 508.996 710.44 508.996 709.936C508.996 709.432 509.176 709.006 509.536 708.658C509.896 708.31 510.34 708.136 510.868 708.136C511.396 708.136 511.84 708.304 512.2 708.64C512.56 708.976 512.74 709.396 512.74 709.9C512.74 710.428 512.566 710.872 512.218 711.232C511.87 711.592 511.42 711.772 510.868 711.772L510.868 711.772ZM521.272 729.952L521.344 726.676L533.116 715.948L536.248 715.948L527.932 723.904L526.492 725.128L521.272 729.952L521.272 729.952ZM519.256 734.848L519.256 708.136L521.812 708.136L521.812 734.848L519.256 734.848L519.256 734.848ZM533.908 734.848L526.024 725.02L527.68 723.04L537.04 734.848L533.908 734.848L533.908 734.848Z" id="christocentrik" fill="#A2B0B0" fill-rule="evenodd" stroke="none" />
        </g>
      </g>
    </g>
  </g>
</svg>