<?xml version="1.0" encoding="utf-8"?>
<svg width="649px" height="789px" viewBox="0 0 649 789" version="1.1" xmlns:xlink="http://www.w3.org/1999/xlink" xmlns="http://www.w3.org/2000/svg">
  <defs>
    <path d="M649 0L649 0L649 789L0 789L0 0L649 0Z" id="path_1" />
    <path d="M512 0L512 0L512 512L0 512L0 0L512 0Z" id="path_2" />
    <path d="M256 0C397.404 0 512 114.596 512 256L512 256C512 397.404 397.404 512 256 512L256 512C114.596 512 0 397.404 0 256L0 256C0 114.596 114.596 0 256 0L256 0Z" id="path_3" />
    <clipPath id="clip_1">
      <use xlink:href="#path_1" />
    </clipPath>
    <clipPath id="clip_2">
      <use xlink:href="#path_2" />
    </clipPath>
    <clipPath id="mask_1">
      <use xlink:href="#path_3" />
    </clipPath>
  </defs>
  <g id="Instagram Post Square" clip-path="url(#clip_1)">
    <path d="M649 0L649 0L649 789L0 789L0 0L649 0Z" id="Instagram-Post-Square" fill="#0C0E0E" fill-opacity="0" stroke="none" />
    <g id="svg" clip-path="url(#clip_2)" transform="translate(68 56)">
      <path d="M512 0L512 0L512 512L0 512L0 0L512 0Z" id="svg" fill="none" stroke="none" />
      <g id="Mask-Group">
        <path d="M256 0C397.404 0 512 114.596 512 256L512 256C512 397.404 397.404 512 256 512L256 512C114.596 512 0 397.404 0 256L0 256C0 114.596 114.596 0 256 0L256 0Z" id="path_1" fill="none" stroke="none" />
        <g clip-path="url(#mask_1)">
          <g id="Shamayim---Logo" transform="translate(-3 0)">
            <path d="M259 0C400.404 0 515 114.596 515 256L515 256C515 397.404 400.404 512 259 512L259 512C117.596 512 3 397.404 3 256L3 256C3 114.596 117.596 0 259 0L259 0Z" id="Shamayim---Logo" fill="#008080" stroke="none" />
            <path d="M274.5 290C177.905 290 85.4028 307.525 0 339.569L0 522L519 522L519 329.009C442.083 303.695 359.891 290 274.5 290L274.5 290L274.5 290Z" id="Vector" fill="#0C0E0E" fill-rule="evenodd" stroke="none" />
            <path d="M259 105L271.23 144.333L304 150L271.23 161.49L259 251.761L246.804 161.49L214 150L246.804 144.333L259 105L259 105Z" id="Christ" fill="#FFFFFF" fill-rule="evenodd" stroke="none" />
            <path d="M40.3472 158.682C40.3472 156.342 42.2435 154.446 44.5828 154.446C46.9221 154.446 48.8185 156.342 48.8185 158.682C48.8185 161.021 46.9221 162.917 44.5828 162.917C42.2435 162.917 40.3472 161.021 40.3472 158.682L40.3472 158.682ZM106.201 109.064C106.201 106.724 108.097 104.828 110.436 104.828C112.776 104.828 114.672 106.724 114.672 109.064C114.672 111.403 112.776 113.299 110.436 113.299C108.097 113.299 106.201 111.403 106.201 109.064L106.201 109.064ZM177.844 58.2357C177.844 55.8964 179.74 54 182.08 54C184.419 54 186.315 55.8964 186.315 58.2357C186.315 60.575 184.419 62.4713 182.08 62.4713C179.74 62.4713 177.844 60.575 177.844 58.2357L177.844 58.2357ZM259.4 39.5C259.4 37.567 260.967 36 262.9 36C264.833 36 266.4 37.567 266.4 39.5C266.4 41.433 264.833 43 262.9 43C260.967 43 259.4 41.433 259.4 39.5L259.4 39.5ZM454.736 184.096C454.736 181.756 456.632 179.86 458.971 179.86C461.311 179.86 463.207 181.756 463.207 184.096C463.207 186.435 461.311 188.331 458.971 188.331C456.632 188.331 454.736 186.435 454.736 184.096L454.736 184.096ZM386.965 84.8599C386.965 82.5206 388.861 80.6242 391.201 80.6242C393.54 80.6242 395.436 82.5206 395.436 84.8599C395.436 87.1992 393.54 89.0955 391.201 89.0955C388.861 89.0955 386.965 87.1992 386.965 84.8599L386.965 84.8599ZM186 239.764C186 237.425 187.896 235.529 190.236 235.529C192.575 235.529 194.471 237.425 194.471 239.764C194.471 242.104 192.575 244 190.236 244C187.896 244 186 242.104 186 239.764L186 239.764ZM98.4712 206.764C98.4712 204.425 100.368 202.529 102.707 202.529C105.046 202.529 106.943 204.425 106.943 206.764C106.943 209.104 105.046 211 102.707 211C100.368 211 98.4712 209.104 98.4712 206.764L98.4712 206.764ZM455.946 142.344C455.946 138.334 459.197 135.083 463.207 135.083C467.217 135.083 470.468 138.334 470.468 142.344C470.468 146.354 467.217 149.605 463.207 149.605C459.197 149.605 455.946 146.354 455.946 142.344L455.946 142.344ZM349.449 213.745C349.449 209.735 352.7 206.484 356.71 206.484C360.721 206.484 363.971 209.735 363.971 213.745C363.971 217.755 360.721 221.006 356.71 221.006C352.7 221.006 349.449 217.755 349.449 213.745L349.449 213.745ZM349.449 99.3822C349.449 98.3796 350.262 97.5669 351.264 97.5669C352.267 97.5669 353.08 98.3796 353.08 99.3822C353.08 100.385 352.267 101.197 351.264 101.197C350.262 101.197 349.449 100.385 349.449 99.3822L349.449 99.3822ZM343 175.082C343 174.08 343.813 173.267 344.815 173.267C345.818 173.267 346.631 174.08 346.631 175.082C346.631 176.085 345.818 176.897 344.815 176.897C343.813 176.897 343 176.085 343 175.082L343 175.082ZM195.28 103.185C195.28 102.182 196.092 101.369 197.095 101.369C198.098 101.369 198.91 102.182 198.91 103.185C198.91 104.187 198.098 105 197.095 105C196.092 105 195.28 104.187 195.28 103.185L195.28 103.185ZM186 181.815C186 180.813 186.813 180 187.815 180C188.818 180 189.631 180.813 189.631 181.815C189.631 182.818 188.818 183.631 187.815 183.631C186.813 183.631 186 182.818 186 181.815L186 181.815ZM19.0669 228.268C19.0669 224.257 22.3178 221.006 26.328 221.006C30.3383 221.006 33.5892 224.257 33.5892 228.268C33.5892 232.278 30.3383 235.529 26.328 235.529C22.3178 235.529 19.0669 232.278 19.0669 228.268L19.0669 228.268ZM486.9 236.261C486.9 232.251 490.151 229 494.161 229C498.171 229 501.422 232.251 501.422 236.261C501.422 240.271 498.171 243.522 494.161 243.522C490.151 243.522 486.9 240.271 486.9 236.261L486.9 236.261ZM349 241.383C349 240.38 349.813 239.568 350.815 239.568C351.818 239.568 352.631 240.38 352.631 241.383C352.631 242.385 351.818 243.198 350.815 243.198C349.813 243.198 349 242.385 349 241.383L349 241.383ZM89.3694 234.185C89.3694 233.182 90.1821 232.369 91.1847 232.369C92.1872 232.369 93 233.182 93 234.185C93 235.187 92.1872 236 91.1847 236C90.1821 236 89.3694 235.187 89.3694 234.185L89.3694 234.185ZM384.545 157.471C384.545 155.8 385.899 154.446 387.57 154.446C389.241 154.446 390.596 155.8 390.596 157.471C390.596 159.142 389.241 160.497 387.57 160.497C385.899 160.497 384.545 159.142 384.545 157.471L384.545 157.471ZM403.896 224.471C403.896 222.8 405.25 221.446 406.921 221.446C408.592 221.446 409.947 222.8 409.947 224.471C409.947 226.142 408.592 227.497 406.921 227.497C405.25 227.497 403.896 226.142 403.896 224.471L403.896 224.471ZM337.696 57.4713C337.696 55.8004 339.05 54.4459 340.721 54.4459C342.392 54.4459 343.747 55.8004 343.747 57.4713C343.747 59.1423 342.392 60.4968 340.721 60.4968C339.05 60.4968 337.696 59.1423 337.696 57.4713L337.696 57.4713ZM270.787 83.6497C270.787 81.9788 272.141 80.6242 273.812 80.6242C275.483 80.6242 276.838 81.9788 276.838 83.6497C276.838 85.3206 275.483 86.6752 273.812 86.6752C272.141 86.6752 270.787 85.3206 270.787 83.6497L270.787 83.6497ZM131.615 169.573C131.615 167.902 132.969 166.548 134.64 166.548C136.311 166.548 137.666 167.902 137.666 169.573C137.666 171.244 136.311 172.599 134.64 172.599C132.969 172.599 131.615 171.244 131.615 169.573L131.615 169.573ZM438.277 221.611C438.277 219.272 440.174 217.376 442.513 217.376C444.852 217.376 446.748 219.272 446.748 221.611C446.748 223.951 444.852 225.847 442.513 225.847C440.174 225.847 438.277 223.951 438.277 221.611L438.277 221.611Z" id="stars" fill="#FFFFFF" fill-rule="evenodd" stroke="none" />
          </g>
        </g>
      </g>
    </g>
    <g id="shamayim" transform="translate(111 602)">
      <g id="shamayim" fill="#008080">
        <path d="M19.44 77.92Q14.16 77.92 9.4 76.48Q4.64 75.04 1.92 72.96L5.12 66.88Q7.84 68.72 11.84 70Q15.84 71.28 20 71.28Q25.36 71.28 27.72 69.76Q30.08 68.24 30.08 65.52Q30.08 63.52 28.64 62.4Q27.2 61.28 24.84 60.72Q22.48 60.16 19.6 59.72Q16.72 59.28 13.84 58.6Q10.96 57.92 8.56 56.68Q6.16 55.44 4.72 53.24Q3.28 51.04 3.28 47.36Q3.28 43.52 5.44 40.64Q7.6 37.76 11.56 36.2Q15.52 34.64 20.96 34.64Q25.12 34.64 29.4 35.64Q33.68 36.64 36.4 38.48L33.12 44.56Q30.24 42.64 27.12 41.92Q24 41.2 20.88 41.2Q15.84 41.2 13.36 42.84Q10.88 44.48 10.88 47.04Q10.88 49.2 12.36 50.36Q13.84 51.52 16.2 52.16Q18.56 52.8 21.44 53.24Q24.32 53.68 27.2 54.36Q30.08 55.04 32.44 56.24Q34.8 57.44 36.28 59.6Q37.76 61.76 37.76 65.36Q37.76 69.2 35.52 72Q33.28 74.8 29.2 76.36Q25.12 77.92 19.44 77.92ZM70 34.64Q75.2 34.64 79.16 36.64Q83.12 38.64 85.36 42.72Q87.6 46.8 87.6 53.04L87.6 77.44L79.92 77.44L79.92 53.92Q79.92 47.76 76.92 44.64Q73.92 41.52 68.48 41.52Q64.4 41.52 61.36 43.12Q58.32 44.72 56.68 47.84Q55.04 50.96 55.04 55.6L55.04 77.44L47.36 77.44L47.36 18.08L55.04 18.08L55.04 46.48L53.52 43.44Q55.6 39.28 59.92 36.96Q64.24 34.64 70 34.64ZM128.16 77.44L128.16 68.48L127.76 66.8L127.76 51.52Q127.76 46.64 124.92 43.96Q122.08 41.28 116.4 41.28Q112.64 41.28 109.04 42.52Q105.44 43.76 102.96 45.84L99.76 40.08Q103.04 37.44 107.64 36.04Q112.24 34.64 117.28 34.64Q126 34.64 130.72 38.88Q135.44 43.12 135.44 51.84L135.44 77.44L128.16 77.44ZM114.24 77.92Q109.52 77.92 105.96 76.32Q102.4 74.72 100.48 71.88Q98.56 69.04 98.56 65.44Q98.56 62 100.2 59.2Q101.84 56.4 105.56 54.72Q109.28 53.04 115.6 53.04L129.04 53.04L129.04 58.56L115.92 58.56Q110.16 58.56 108.16 60.48Q106.16 62.4 106.16 65.12Q106.16 68.24 108.64 70.12Q111.12 72 115.52 72Q119.84 72 123.08 70.08Q126.32 68.16 127.76 64.48L129.28 69.76Q127.76 73.52 123.92 75.72Q120.08 77.92 114.24 77.92ZM202.72 34.64Q207.84 34.64 211.76 36.64Q215.68 38.64 217.88 42.72Q220.08 46.8 220.08 53.04L220.08 77.44L212.4 77.44L212.4 53.92Q212.4 47.76 209.52 44.64Q206.64 41.52 201.44 41.52Q197.6 41.52 194.72 43.12Q191.84 44.72 190.28 47.84Q188.72 50.96 188.72 55.6L188.72 77.44L181.04 77.44L181.04 53.92Q181.04 47.76 178.2 44.64Q175.36 41.52 170.08 41.52Q166.32 41.52 163.44 43.12Q160.56 44.72 158.96 47.84Q157.36 50.96 157.36 55.6L157.36 77.44L149.68 77.44L149.68 35.04L157.04 35.04L157.04 46.32L155.84 43.44Q157.84 39.28 162 36.96Q166.16 34.64 171.68 34.64Q177.76 34.64 182.16 37.64Q186.56 40.64 187.92 46.72L184.8 45.44Q186.72 40.56 191.52 37.6Q196.32 34.64 202.72 34.64ZM260.56 77.44L260.56 68.48L260.16 66.8L260.16 51.52Q260.16 46.64 257.32 43.96Q254.48 41.28 248.8 41.28Q245.04 41.28 241.44 42.52Q237.84 43.76 235.36 45.84L232.16 40.08Q235.44 37.44 240.04 36.04Q244.64 34.64 249.68 34.64Q258.4 34.64 263.12 38.88Q267.84 43.12 267.84 51.84L267.84 77.44L260.56 77.44ZM246.64 77.92Q241.92 77.92 238.36 76.32Q234.8 74.72 232.88 71.88Q230.96 69.04 230.96 65.44Q230.96 62 232.6 59.2Q234.24 56.4 237.96 54.72Q241.68 53.04 248 53.04L261.44 53.04L261.44 58.56L248.32 58.56Q242.56 58.56 240.56 60.48Q238.56 62.4 238.56 65.12Q238.56 68.24 241.04 70.12Q243.52 72 247.92 72Q252.24 72 255.48 70.08Q258.72 68.16 260.16 64.48L261.68 69.76Q260.16 73.52 256.32 75.72Q252.48 77.92 246.64 77.92ZM283.12 93.44Q280.08 93.44 277.2 92.44Q274.32 91.44 272.24 89.52L275.52 83.76Q277.12 85.28 279.04 86.08Q280.96 86.88 283.12 86.88Q285.92 86.88 287.76 85.44Q289.6 84 291.2 80.32L293.84 74.48L294.64 73.52L311.28 35.04L318.8 35.04L298.24 81.68Q296.4 86.16 294.12 88.72Q291.84 91.28 289.12 92.36Q286.4 93.44 283.12 93.44ZM293.2 78.8L273.84 35.04L281.84 35.04L298.32 72.8L293.2 78.8ZM326 77.44L326 35.04L333.68 35.04L333.68 77.44L326 77.44ZM329.84 26.88Q327.6 26.88 326.12 25.44Q324.64 24 324.64 21.92Q324.64 19.76 326.12 18.32Q327.6 16.88 329.84 16.88Q332.08 16.88 333.56 18.28Q335.04 19.68 335.04 21.76Q335.04 23.92 333.6 25.4Q332.16 26.88 329.84 26.88ZM401.36 34.64Q406.48 34.64 410.4 36.64Q414.32 38.64 416.52 42.72Q418.72 46.8 418.72 53.04L418.72 77.44L411.04 77.44L411.04 53.92Q411.04 47.76 408.16 44.64Q405.28 41.52 400.08 41.52Q396.24 41.52 393.36 43.12Q390.48 44.72 388.92 47.84Q387.36 50.96 387.36 55.6L387.36 77.44L379.68 77.44L379.68 53.92Q379.68 47.76 376.84 44.64Q374 41.52 368.72 41.52Q364.96 41.52 362.08 43.12Q359.2 44.72 357.6 47.84Q356 50.96 356 55.6L356 77.44L348.32 77.44L348.32 35.04L355.68 35.04L355.68 46.32L354.48 43.44Q356.48 39.28 360.64 36.96Q364.8 34.64 370.32 34.64Q376.4 34.64 380.8 37.64Q385.2 40.64 386.56 46.72L383.44 45.44Q385.36 40.56 390.16 37.6Q394.96 34.64 401.36 34.64Z" />
      </g>
    </g>
    <g id="christocentrik" transform="translate(289 700)">
      <g id="christocentrik" fill="#A2B0B0">
        <path d="M11.412 35.028Q8.604 35.028 6.39 33.786Q4.176 32.544 2.916 30.366Q1.656 28.188 1.656 25.38Q1.656 22.536 2.916 20.376Q4.176 18.216 6.39 16.992Q8.604 15.768 11.412 15.768Q13.824 15.768 15.768 16.704Q17.712 17.64 18.828 19.512L16.92 20.808Q15.948 19.368 14.508 18.684Q13.068 18 11.376 18Q9.36 18 7.74 18.918Q6.12 19.836 5.184 21.492Q4.248 23.148 4.248 25.38Q4.248 27.612 5.184 29.268Q6.12 30.924 7.74 31.842Q9.36 32.76 11.376 32.76Q13.068 32.76 14.508 32.076Q15.948 31.392 16.92 29.988L18.828 31.284Q17.712 33.12 15.768 34.074Q13.824 35.028 11.412 35.028ZM33.192 15.768Q35.496 15.768 37.242 16.65Q38.988 17.532 39.978 19.332Q40.968 21.132 40.968 23.868L40.968 34.848L38.412 34.848L38.412 24.12Q38.412 21.132 36.918 19.602Q35.424 18.072 32.724 18.072Q30.708 18.072 29.214 18.882Q27.72 19.692 26.91 21.222Q26.1 22.752 26.1 24.912L26.1 34.848L23.544 34.848L23.544 8.136L26.1 8.136L26.1 21.132L25.596 20.16Q26.496 18.108 28.476 16.938Q30.456 15.768 33.192 15.768ZM47.88 34.848L47.88 15.948L50.328 15.948L50.328 21.096L50.076 20.196Q50.868 18.036 52.74 16.902Q54.612 15.768 57.384 15.768L57.384 18.252Q57.24 18.252 57.096 18.234Q56.952 18.216 56.808 18.216Q53.82 18.216 52.128 20.034Q50.436 21.852 50.436 25.2L50.436 34.848L47.88 34.848ZM62.028 34.848L62.028 15.948L64.584 15.948L64.584 34.848L62.028 34.848ZM63.324 11.772Q62.532 11.772 61.992 11.232Q61.452 10.692 61.452 9.936Q61.452 9.18 61.992 8.658Q62.532 8.136 63.324 8.136Q64.116 8.136 64.656 8.64Q65.196 9.144 65.196 9.9Q65.196 10.692 64.674 11.232Q64.152 11.772 63.324 11.772ZM76.788 35.028Q74.448 35.028 72.36 34.362Q70.272 33.696 69.084 32.688L70.236 30.672Q71.388 31.536 73.188 32.166Q74.988 32.796 76.968 32.796Q79.668 32.796 80.856 31.95Q82.044 31.104 82.044 29.7Q82.044 28.656 81.378 28.062Q80.712 27.468 79.632 27.162Q78.552 26.856 77.22 26.64Q75.888 26.424 74.574 26.136Q73.26 25.848 72.18 25.29Q71.1 24.732 70.434 23.76Q69.768 22.788 69.768 21.168Q69.768 19.62 70.632 18.396Q71.496 17.172 73.17 16.47Q74.844 15.768 77.256 15.768Q79.092 15.768 80.928 16.254Q82.764 16.74 83.952 17.532L82.836 19.584Q81.576 18.72 80.136 18.342Q78.696 17.964 77.256 17.964Q74.7 17.964 73.494 18.846Q72.288 19.728 72.288 21.096Q72.288 22.176 72.954 22.788Q73.62 23.4 74.718 23.742Q75.816 24.084 77.13 24.3Q78.444 24.516 79.758 24.822Q81.072 25.128 82.17 25.65Q83.268 26.172 83.934 27.126Q84.6 28.08 84.6 29.628Q84.6 31.284 83.682 32.49Q82.764 33.696 81.018 34.362Q79.272 35.028 76.788 35.028ZM95.256 35.028Q92.592 35.028 91.152 33.588Q89.712 32.148 89.712 29.52L89.712 11.772L92.268 11.772L92.268 29.376Q92.268 31.032 93.114 31.932Q93.96 32.832 95.544 32.832Q97.236 32.832 98.352 31.86L99.252 33.696Q98.496 34.38 97.434 34.704Q96.372 35.028 95.256 35.028ZM86.328 18.072L86.328 15.948L98.028 15.948L98.028 18.072L86.328 18.072ZM110.916 35.028Q108.18 35.028 106.002 33.786Q103.824 32.544 102.564 30.366Q101.304 28.188 101.304 25.38Q101.304 22.536 102.564 20.376Q103.824 18.216 105.984 16.992Q108.144 15.768 110.916 15.768Q113.724 15.768 115.902 16.992Q118.08 18.216 119.322 20.376Q120.564 22.536 120.564 25.38Q120.564 28.188 119.322 30.366Q118.08 32.544 115.884 33.786Q113.688 35.028 110.916 35.028ZM110.916 32.76Q112.968 32.76 114.552 31.842Q116.136 30.924 117.054 29.25Q117.972 27.576 117.972 25.38Q117.972 23.148 117.054 21.492Q116.136 19.836 114.552 18.918Q112.968 18 110.952 18Q108.936 18 107.352 18.918Q105.768 19.836 104.832 21.492Q103.896 23.148 103.896 25.38Q103.896 27.576 104.832 29.25Q105.768 30.924 107.352 31.842Q108.936 32.76 110.916 32.76ZM133.632 35.028Q130.824 35.028 128.61 33.786Q126.396 32.544 125.136 30.366Q123.876 28.188 123.876 25.38Q123.876 22.536 125.136 20.376Q126.396 18.216 128.61 16.992Q130.824 15.768 133.632 15.768Q136.044 15.768 137.988 16.704Q139.932 17.64 141.048 19.512L139.14 20.808Q138.168 19.368 136.728 18.684Q135.288 18 133.596 18Q131.58 18 129.96 18.918Q128.34 19.836 127.404 21.492Q126.468 23.148 126.468 25.38Q126.468 27.612 127.404 29.268Q128.34 30.924 129.96 31.842Q131.58 32.76 133.596 32.76Q135.288 32.76 136.728 32.076Q138.168 31.392 139.14 29.988L141.048 31.284Q139.932 33.12 137.988 34.074Q136.044 35.028 133.632 35.028ZM153.756 35.028Q150.804 35.028 148.572 33.786Q146.34 32.544 145.08 30.366Q143.82 28.188 143.82 25.38Q143.82 22.572 145.026 20.412Q146.232 18.252 148.338 17.01Q150.444 15.768 153.072 15.768Q155.736 15.768 157.806 16.974Q159.876 18.18 161.064 20.358Q162.252 22.536 162.252 25.38Q162.252 25.56 162.234 25.758Q162.216 25.956 162.216 26.172L145.764 26.172L145.764 24.264L160.848 24.264L159.84 25.02Q159.84 22.968 158.958 21.366Q158.076 19.764 156.564 18.864Q155.052 17.964 153.072 17.964Q151.128 17.964 149.58 18.864Q148.032 19.764 147.168 21.384Q146.304 23.004 146.304 25.092L146.304 25.488Q146.304 27.648 147.258 29.286Q148.212 30.924 149.922 31.842Q151.632 32.76 153.828 32.76Q155.556 32.76 157.05 32.148Q158.544 31.536 159.624 30.276L161.064 31.932Q159.804 33.444 157.914 34.236Q156.024 35.028 153.756 35.028ZM177.12 15.768Q179.424 15.768 181.17 16.65Q182.916 17.532 183.906 19.332Q184.896 21.132 184.896 23.868L184.896 34.848L182.34 34.848L182.34 24.12Q182.34 21.132 180.846 19.602Q179.352 18.072 176.652 18.072Q174.636 18.072 173.142 18.882Q171.648 19.692 170.838 21.222Q170.028 22.752 170.028 24.912L170.028 34.848L167.472 34.848L167.472 15.948L169.92 15.948L169.92 21.132L169.524 20.16Q170.424 18.108 172.404 16.938Q174.384 15.768 177.12 15.768ZM197.784 35.028Q195.12 35.028 193.68 33.588Q192.24 32.148 192.24 29.52L192.24 11.772L194.796 11.772L194.796 29.376Q194.796 31.032 195.642 31.932Q196.488 32.832 198.072 32.832Q199.764 32.832 200.88 31.86L201.78 33.696Q201.024 34.38 199.962 34.704Q198.9 35.028 197.784 35.028ZM188.856 18.072L188.856 15.948L200.556 15.948L200.556 18.072L188.856 18.072ZM206.424 34.848L206.424 15.948L208.872 15.948L208.872 21.096L208.62 20.196Q209.412 18.036 211.284 16.902Q213.156 15.768 215.928 15.768L215.928 18.252Q215.784 18.252 215.64 18.234Q215.496 18.216 215.352 18.216Q212.364 18.216 210.672 20.034Q208.98 21.852 208.98 25.2L208.98 34.848L206.424 34.848ZM220.572 34.848L220.572 15.948L223.128 15.948L223.128 34.848L220.572 34.848ZM221.868 11.772Q221.076 11.772 220.536 11.232Q219.996 10.692 219.996 9.936Q219.996 9.18 220.536 8.658Q221.076 8.136 221.868 8.136Q222.66 8.136 223.2 8.64Q223.74 9.144 223.74 9.9Q223.74 10.692 223.218 11.232Q222.696 11.772 221.868 11.772ZM232.272 29.952L232.344 26.676L244.116 15.948L247.248 15.948L238.932 23.904L237.492 25.128L232.272 29.952ZM230.256 34.848L230.256 8.136L232.812 8.136L232.812 34.848L230.256 34.848ZM244.908 34.848L237.024 25.02L238.68 23.04L248.04 34.848L244.908 34.848Z" />
      </g>
    </g>
  </g>
</svg>