<?xml version="1.0" encoding="utf-8"?>
<svg width="420px" height="595px" viewBox="0 0 420 595" version="1.1" xmlns:xlink="http://www.w3.org/1999/xlink" xmlns="http://www.w3.org/2000/svg">
  <defs>
    <path d="M420 0L420 0L420 595L0 595L0 0L420 0Z" id="path_1" />
    <path d="M20 0C31.0472 0 40 8.95281 40 20L40 20C40 31.0472 31.0472 40 20 40L20 40C8.95281 40 0 31.0472 0 20L0 20C0 8.95281 8.95281 0 20 0L20 0Z" id="path_2" />
    <clipPath id="clip_1">
      <use xlink:href="#path_1" clip-rule="evenodd" fill-rule="evenodd" />
    </clipPath>
    <clipPath id="clip_2">
      <use xlink:href="#path_2" clip-rule="evenodd" fill-rule="evenodd" />
    </clipPath>
  </defs>
  <g id="Cover  4 Copy 4">
    <path d="M420 0L420 0L420 595L0 595L0 0L420 0Z" id="Cover--4-Copy-4" fill="#FFFFFF" stroke="none" />
    <path d="M-15 0L431 0L431 595L-15 595L-15 0Z" id="Default_Throne_of_overwhelming_light_in_heavenly_sky_3" fill="#1C1E24" fill-rule="evenodd" stroke="none" clip-path="url(#clip_1)" />
    <path d="M-15 0L431 0L431 595L-15 595L-15 0Z" id="Default_Throne_of_overwhelming_light_in_heavenly_sky_3" fill="#1C1E24" fill-rule="evenodd" stroke="none" clip-path="url(#clip_1)" />
    <g id="Une-Arche-de-Chair" transform="translate(76 98)" clip-path="url(#clip_1)">
      <g transform="translate(0, 17.57)" id="Une-" fill="#1ABC9C">
        <path d="M27.51 68.74Q16.66 68.74 10.57 62.79Q4.48 56.84 4.48 45.92L4.48 18.76L18.34 18.76L18.34 45.5Q18.34 51.8 20.825 54.53Q23.31 57.26 27.65 57.26Q31.99 57.26 34.44 54.53Q36.89 51.8 36.89 45.5L36.89 18.76L50.54 18.76L50.54 45.92Q50.54 56.84 44.45 62.79Q38.36 68.74 27.51 68.74ZM81 29.19Q85.41 29.19 88.98 30.975Q92.55 32.76 94.615 36.47Q96.68 40.18 96.68 46.06L96.68 67.76L83.38 67.76L83.38 48.23Q83.38 44.17 81.735 42.315Q80.09 40.46 77.15 40.46Q75.05 40.46 73.3 41.405Q71.55 42.35 70.57 44.31Q69.59 46.27 69.59 49.42L69.59 67.76L56.29 67.76L56.29 29.82L68.96 29.82L68.96 40.6L66.51 37.45Q68.68 33.32 72.46 31.255Q76.24 29.19 81 29.19ZM122.38 68.39Q115.66 68.39 110.655 65.835Q105.65 63.28 102.885 58.835Q100.12 54.39 100.12 48.72Q100.12 43.05 102.815 38.605Q105.51 34.16 110.27 31.675Q115.03 29.19 120.98 29.19Q126.58 29.19 131.2 31.465Q135.82 33.74 138.55 38.15Q141.28 42.56 141.28 48.86Q141.28 49.56 141.21 50.47Q141.14 51.38 141.07 52.15L111.04 52.15L111.04 45.15L134 45.15L128.96 47.11Q129.03 44.52 128.015 42.63Q127 40.74 125.215 39.69Q123.43 38.64 121.05 38.64Q118.67 38.64 116.885 39.69Q115.1 40.74 114.12 42.665Q113.14 44.59 113.14 47.18L113.14 49.21Q113.14 52.01 114.295 54.04Q115.45 56.07 117.62 57.155Q119.79 58.24 122.8 58.24Q125.6 58.24 127.595 57.435Q129.59 56.63 131.55 54.95L138.55 62.23Q135.82 65.24 131.83 66.815Q127.84 68.39 122.38 68.39Z" />
      </g>
      <g transform="translate(0, 102.9)" id="Arche-" fill="#1ABC9C">
        <path d="M-0.98 67.76L20.65 18.76L34.3 18.76L56 67.76L41.58 67.76L24.64 25.55L30.1 25.55L13.16 67.76L-0.98 67.76ZM10.85 58.24L14.42 48.02L38.36 48.02L41.93 58.24L10.85 58.24ZM56.29 67.76L56.29 29.82L68.96 29.82L68.96 40.88L67.07 37.73Q68.75 33.46 72.53 31.325Q76.31 29.19 81.7 29.19L81.7 41.16Q80.79 41.02 80.125 40.985Q79.46 40.95 78.69 40.95Q74.63 40.95 72.11 43.155Q69.59 45.36 69.59 50.33L69.59 67.76L56.29 67.76ZM103.2 68.39Q96.9 68.39 91.965 65.87Q87.03 63.35 84.23 58.905Q81.43 54.46 81.43 48.72Q81.43 42.98 84.23 38.57Q87.03 34.16 91.965 31.675Q96.9 29.19 103.2 29.19Q109.64 29.19 114.33 31.92Q119.02 34.65 120.98 39.62L110.69 44.87Q109.36 42.21 107.4 40.985Q105.44 39.76 103.13 39.76Q100.82 39.76 98.93 40.81Q97.04 41.86 95.955 43.855Q94.87 45.85 94.87 48.72Q94.87 51.66 95.955 53.69Q97.04 55.72 98.93 56.77Q100.82 57.82 103.13 57.82Q105.44 57.82 107.4 56.595Q109.36 55.37 110.69 52.71L120.98 57.96Q119.02 62.93 114.33 65.66Q109.64 68.39 103.2 68.39ZM147.59 29.19Q152 29.19 155.57 30.975Q159.14 32.76 161.205 36.47Q163.27 40.18 163.27 46.06L163.27 67.76L149.97 67.76L149.97 48.23Q149.97 44.17 148.325 42.315Q146.68 40.46 143.74 40.46Q141.64 40.46 139.89 41.405Q138.14 42.35 137.16 44.31Q136.18 46.27 136.18 49.42L136.18 67.76L122.88 67.76L122.88 15.82L136.18 15.82L136.18 40.6L133.1 37.45Q135.27 33.32 139.05 31.255Q142.83 29.19 147.59 29.19ZM188.97 68.39Q182.25 68.39 177.245 65.835Q172.24 63.28 169.475 58.835Q166.71 54.39 166.71 48.72Q166.71 43.05 169.405 38.605Q172.1 34.16 176.86 31.675Q181.62 29.19 187.57 29.19Q193.17 29.19 197.79 31.465Q202.41 33.74 205.14 38.15Q207.87 42.56 207.87 48.86Q207.87 49.56 207.8 50.47Q207.73 51.38 207.66 52.15L177.63 52.15L177.63 45.15L200.59 45.15L195.55 47.11Q195.62 44.52 194.605 42.63Q193.59 40.74 191.805 39.69Q190.02 38.64 187.64 38.64Q185.26 38.64 183.475 39.69Q181.69 40.74 180.71 42.665Q179.73 44.59 179.73 47.18L179.73 49.21Q179.73 52.01 180.885 54.04Q182.04 56.07 184.21 57.155Q186.38 58.24 189.39 58.24Q192.19 58.24 194.185 57.435Q196.18 56.63 198.14 54.95L205.14 62.23Q202.41 65.24 198.42 66.815Q194.43 68.39 188.97 68.39Z" />
      </g>
      <g transform="translate(0, 188.23001)" id="de-Chair" fill="#1ABC9C">
        <path d="M20.79 68.39Q15.61 68.39 11.375 65.975Q7.14 63.56 4.62 59.185Q2.1 54.81 2.1 48.72Q2.1 42.7 4.62 38.325Q7.14 33.95 11.375 31.57Q15.61 29.19 20.79 29.19Q25.69 29.19 29.085 31.29Q32.48 33.39 34.23 37.73Q35.98 42.07 35.98 48.72Q35.98 55.51 34.3 59.85Q32.62 64.19 29.26 66.29Q25.9 68.39 20.79 68.39ZM23.59 57.82Q25.83 57.82 27.615 56.77Q29.4 55.72 30.45 53.655Q31.5 51.59 31.5 48.72Q31.5 45.85 30.45 43.855Q29.4 41.86 27.615 40.81Q25.83 39.76 23.59 39.76Q21.28 39.76 19.495 40.81Q17.71 41.86 16.66 43.855Q15.61 45.85 15.61 48.72Q15.61 51.59 16.66 53.655Q17.71 55.72 19.495 56.77Q21.28 57.82 23.59 57.82ZM31.92 67.76L31.92 61.25L31.99 48.72L31.29 36.19L31.29 15.82L44.59 15.82L44.59 67.76L31.92 67.76ZM70.01 68.39Q63.29 68.39 58.285 65.835Q53.28 63.28 50.515 58.835Q47.75 54.39 47.75 48.72Q47.75 43.05 50.445 38.605Q53.14 34.16 57.9 31.675Q62.66 29.19 68.61 29.19Q74.21 29.19 78.83 31.465Q83.45 33.74 86.18 38.15Q88.91 42.56 88.91 48.86Q88.91 49.56 88.84 50.47Q88.77 51.38 88.7 52.15L58.67 52.15L58.67 45.15L81.63 45.15L76.59 47.11Q76.66 44.52 75.645 42.63Q74.63 40.74 72.845 39.69Q71.06 38.64 68.68 38.64Q66.3 38.64 64.515 39.69Q62.73 40.74 61.75 42.665Q60.77 44.59 60.77 47.18L60.77 49.21Q60.77 52.01 61.925 54.04Q63.08 56.07 65.25 57.155Q67.42 58.24 70.43 58.24Q73.23 58.24 75.225 57.435Q77.22 56.63 79.18 54.95L86.18 62.23Q83.45 65.24 79.46 66.815Q75.47 68.39 70.01 68.39ZM134.5 68.74Q128.69 68.74 123.755 66.885Q118.82 65.03 115.215 61.6Q111.61 58.17 109.58 53.515Q107.55 48.86 107.55 43.26Q107.55 37.66 109.58 33.005Q111.61 28.35 115.215 24.92Q118.82 21.49 123.755 19.635Q128.69 17.78 134.5 17.78Q141.29 17.78 146.645 20.16Q152 22.54 155.57 27.02L146.75 35Q144.37 32.2 141.535 30.73Q138.7 29.26 135.2 29.26Q132.19 29.26 129.67 30.24Q127.15 31.22 125.365 33.075Q123.58 34.93 122.565 37.52Q121.55 40.11 121.55 43.26Q121.55 46.41 122.565 49Q123.58 51.59 125.365 53.445Q127.15 55.3 129.67 56.28Q132.19 57.26 135.2 57.26Q138.7 57.26 141.535 55.79Q144.37 54.32 146.75 51.52L155.57 59.5Q152 63.91 146.645 66.325Q141.29 68.74 134.5 68.74ZM182.81 29.19Q187.22 29.19 190.79 30.975Q194.36 32.76 196.425 36.47Q198.49 40.18 198.49 46.06L198.49 67.76L185.19 67.76L185.19 48.23Q185.19 44.17 183.545 42.315Q181.9 40.46 178.96 40.46Q176.86 40.46 175.11 41.405Q173.36 42.35 172.38 44.31Q171.4 46.27 171.4 49.42L171.4 67.76L158.1 67.76L158.1 15.82L171.4 15.82L171.4 40.6L168.32 37.45Q170.49 33.32 174.27 31.255Q178.05 29.19 182.81 29.19ZM226.99 67.76L226.99 60.69L226.08 58.94L226.08 45.92Q226.08 42.77 224.155 41.055Q222.23 39.34 218.03 39.34Q215.3 39.34 212.5 40.215Q209.7 41.09 207.74 42.63L203.26 33.6Q206.48 31.5 210.995 30.345Q215.51 29.19 219.99 29.19Q229.23 29.19 234.305 33.425Q239.38 37.66 239.38 46.69L239.38 67.76L226.99 67.76ZM215.79 68.39Q211.24 68.39 208.09 66.85Q204.94 65.31 203.295 62.65Q201.65 59.99 201.65 56.7Q201.65 53.2 203.435 50.645Q205.22 48.09 208.93 46.725Q212.64 45.36 218.52 45.36L227.48 45.36L227.48 52.29L220.34 52.29Q217.12 52.29 215.825 53.34Q214.53 54.39 214.53 56.14Q214.53 57.89 215.86 58.94Q217.19 59.99 219.5 59.99Q221.67 59.99 223.455 58.905Q225.24 57.82 226.08 55.58L227.9 60.48Q226.85 64.4 223.805 66.395Q220.76 68.39 215.79 68.39ZM244.78 67.76L244.78 29.82L258.08 29.82L258.08 67.76L244.78 67.76ZM251.43 25.62Q247.79 25.62 245.55 23.59Q243.31 21.56 243.31 18.55Q243.31 15.54 245.55 13.51Q247.79 11.48 251.43 11.48Q255.07 11.48 257.31 13.405Q259.55 15.33 259.55 18.34Q259.55 21.49 257.345 23.555Q255.14 25.62 251.43 25.62ZM263.69 67.76L263.69 29.82L276.36 29.82L276.36 40.88L274.47 37.73Q276.15 33.46 279.93 31.325Q283.71 29.19 289.1 29.19L289.1 41.16Q288.19 41.02 287.525 40.985Q286.86 40.95 286.09 40.95Q282.03 40.95 279.51 43.155Q276.99 45.36 276.99 50.33L276.99 67.76L263.69 67.76Z" />
      </g>
    </g>
    <g id="Une-Arche-de-Chair" transform="translate(76 98)" clip-path="url(#clip_1)">
      <g transform="translate(0, 17.57)" id="Une-" fill="#1ABC9C">
        <path d="M27.51 68.74Q16.66 68.74 10.57 62.79Q4.48 56.84 4.48 45.92L4.48 18.76L18.34 18.76L18.34 45.5Q18.34 51.8 20.825 54.53Q23.31 57.26 27.65 57.26Q31.99 57.26 34.44 54.53Q36.89 51.8 36.89 45.5L36.89 18.76L50.54 18.76L50.54 45.92Q50.54 56.84 44.45 62.79Q38.36 68.74 27.51 68.74ZM81 29.19Q85.41 29.19 88.98 30.975Q92.55 32.76 94.615 36.47Q96.68 40.18 96.68 46.06L96.68 67.76L83.38 67.76L83.38 48.23Q83.38 44.17 81.735 42.315Q80.09 40.46 77.15 40.46Q75.05 40.46 73.3 41.405Q71.55 42.35 70.57 44.31Q69.59 46.27 69.59 49.42L69.59 67.76L56.29 67.76L56.29 29.82L68.96 29.82L68.96 40.6L66.51 37.45Q68.68 33.32 72.46 31.255Q76.24 29.19 81 29.19ZM122.38 68.39Q115.66 68.39 110.655 65.835Q105.65 63.28 102.885 58.835Q100.12 54.39 100.12 48.72Q100.12 43.05 102.815 38.605Q105.51 34.16 110.27 31.675Q115.03 29.19 120.98 29.19Q126.58 29.19 131.2 31.465Q135.82 33.74 138.55 38.15Q141.28 42.56 141.28 48.86Q141.28 49.56 141.21 50.47Q141.14 51.38 141.07 52.15L111.04 52.15L111.04 45.15L134 45.15L128.96 47.11Q129.03 44.52 128.015 42.63Q127 40.74 125.215 39.69Q123.43 38.64 121.05 38.64Q118.67 38.64 116.885 39.69Q115.1 40.74 114.12 42.665Q113.14 44.59 113.14 47.18L113.14 49.21Q113.14 52.01 114.295 54.04Q115.45 56.07 117.62 57.155Q119.79 58.24 122.8 58.24Q125.6 58.24 127.595 57.435Q129.59 56.63 131.55 54.95L138.55 62.23Q135.82 65.24 131.83 66.815Q127.84 68.39 122.38 68.39Z" />
      </g>
      <g transform="translate(0, 102.9)" id="Arche-" fill="#1ABC9C">
        <path d="M-0.98 67.76L20.65 18.76L34.3 18.76L56 67.76L41.58 67.76L24.64 25.55L30.1 25.55L13.16 67.76L-0.98 67.76ZM10.85 58.24L14.42 48.02L38.36 48.02L41.93 58.24L10.85 58.24ZM56.29 67.76L56.29 29.82L68.96 29.82L68.96 40.88L67.07 37.73Q68.75 33.46 72.53 31.325Q76.31 29.19 81.7 29.19L81.7 41.16Q80.79 41.02 80.125 40.985Q79.46 40.95 78.69 40.95Q74.63 40.95 72.11 43.155Q69.59 45.36 69.59 50.33L69.59 67.76L56.29 67.76ZM103.2 68.39Q96.9 68.39 91.965 65.87Q87.03 63.35 84.23 58.905Q81.43 54.46 81.43 48.72Q81.43 42.98 84.23 38.57Q87.03 34.16 91.965 31.675Q96.9 29.19 103.2 29.19Q109.64 29.19 114.33 31.92Q119.02 34.65 120.98 39.62L110.69 44.87Q109.36 42.21 107.4 40.985Q105.44 39.76 103.13 39.76Q100.82 39.76 98.93 40.81Q97.04 41.86 95.955 43.855Q94.87 45.85 94.87 48.72Q94.87 51.66 95.955 53.69Q97.04 55.72 98.93 56.77Q100.82 57.82 103.13 57.82Q105.44 57.82 107.4 56.595Q109.36 55.37 110.69 52.71L120.98 57.96Q119.02 62.93 114.33 65.66Q109.64 68.39 103.2 68.39ZM147.59 29.19Q152 29.19 155.57 30.975Q159.14 32.76 161.205 36.47Q163.27 40.18 163.27 46.06L163.27 67.76L149.97 67.76L149.97 48.23Q149.97 44.17 148.325 42.315Q146.68 40.46 143.74 40.46Q141.64 40.46 139.89 41.405Q138.14 42.35 137.16 44.31Q136.18 46.27 136.18 49.42L136.18 67.76L122.88 67.76L122.88 15.82L136.18 15.82L136.18 40.6L133.1 37.45Q135.27 33.32 139.05 31.255Q142.83 29.19 147.59 29.19ZM188.97 68.39Q182.25 68.39 177.245 65.835Q172.24 63.28 169.475 58.835Q166.71 54.39 166.71 48.72Q166.71 43.05 169.405 38.605Q172.1 34.16 176.86 31.675Q181.62 29.19 187.57 29.19Q193.17 29.19 197.79 31.465Q202.41 33.74 205.14 38.15Q207.87 42.56 207.87 48.86Q207.87 49.56 207.8 50.47Q207.73 51.38 207.66 52.15L177.63 52.15L177.63 45.15L200.59 45.15L195.55 47.11Q195.62 44.52 194.605 42.63Q193.59 40.74 191.805 39.69Q190.02 38.64 187.64 38.64Q185.26 38.64 183.475 39.69Q181.69 40.74 180.71 42.665Q179.73 44.59 179.73 47.18L179.73 49.21Q179.73 52.01 180.885 54.04Q182.04 56.07 184.21 57.155Q186.38 58.24 189.39 58.24Q192.19 58.24 194.185 57.435Q196.18 56.63 198.14 54.95L205.14 62.23Q202.41 65.24 198.42 66.815Q194.43 68.39 188.97 68.39Z" />
      </g>
      <g transform="translate(0, 188.23001)" id="de-Chair" fill="#1ABC9C">
        <path d="M20.79 68.39Q15.61 68.39 11.375 65.975Q7.14 63.56 4.62 59.185Q2.1 54.81 2.1 48.72Q2.1 42.7 4.62 38.325Q7.14 33.95 11.375 31.57Q15.61 29.19 20.79 29.19Q25.69 29.19 29.085 31.29Q32.48 33.39 34.23 37.73Q35.98 42.07 35.98 48.72Q35.98 55.51 34.3 59.85Q32.62 64.19 29.26 66.29Q25.9 68.39 20.79 68.39ZM23.59 57.82Q25.83 57.82 27.615 56.77Q29.4 55.72 30.45 53.655Q31.5 51.59 31.5 48.72Q31.5 45.85 30.45 43.855Q29.4 41.86 27.615 40.81Q25.83 39.76 23.59 39.76Q21.28 39.76 19.495 40.81Q17.71 41.86 16.66 43.855Q15.61 45.85 15.61 48.72Q15.61 51.59 16.66 53.655Q17.71 55.72 19.495 56.77Q21.28 57.82 23.59 57.82ZM31.92 67.76L31.92 61.25L31.99 48.72L31.29 36.19L31.29 15.82L44.59 15.82L44.59 67.76L31.92 67.76ZM70.01 68.39Q63.29 68.39 58.285 65.835Q53.28 63.28 50.515 58.835Q47.75 54.39 47.75 48.72Q47.75 43.05 50.445 38.605Q53.14 34.16 57.9 31.675Q62.66 29.19 68.61 29.19Q74.21 29.19 78.83 31.465Q83.45 33.74 86.18 38.15Q88.91 42.56 88.91 48.86Q88.91 49.56 88.84 50.47Q88.77 51.38 88.7 52.15L58.67 52.15L58.67 45.15L81.63 45.15L76.59 47.11Q76.66 44.52 75.645 42.63Q74.63 40.74 72.845 39.69Q71.06 38.64 68.68 38.64Q66.3 38.64 64.515 39.69Q62.73 40.74 61.75 42.665Q60.77 44.59 60.77 47.18L60.77 49.21Q60.77 52.01 61.925 54.04Q63.08 56.07 65.25 57.155Q67.42 58.24 70.43 58.24Q73.23 58.24 75.225 57.435Q77.22 56.63 79.18 54.95L86.18 62.23Q83.45 65.24 79.46 66.815Q75.47 68.39 70.01 68.39ZM134.5 68.74Q128.69 68.74 123.755 66.885Q118.82 65.03 115.215 61.6Q111.61 58.17 109.58 53.515Q107.55 48.86 107.55 43.26Q107.55 37.66 109.58 33.005Q111.61 28.35 115.215 24.92Q118.82 21.49 123.755 19.635Q128.69 17.78 134.5 17.78Q141.29 17.78 146.645 20.16Q152 22.54 155.57 27.02L146.75 35Q144.37 32.2 141.535 30.73Q138.7 29.26 135.2 29.26Q132.19 29.26 129.67 30.24Q127.15 31.22 125.365 33.075Q123.58 34.93 122.565 37.52Q121.55 40.11 121.55 43.26Q121.55 46.41 122.565 49Q123.58 51.59 125.365 53.445Q127.15 55.3 129.67 56.28Q132.19 57.26 135.2 57.26Q138.7 57.26 141.535 55.79Q144.37 54.32 146.75 51.52L155.57 59.5Q152 63.91 146.645 66.325Q141.29 68.74 134.5 68.74ZM182.81 29.19Q187.22 29.19 190.79 30.975Q194.36 32.76 196.425 36.47Q198.49 40.18 198.49 46.06L198.49 67.76L185.19 67.76L185.19 48.23Q185.19 44.17 183.545 42.315Q181.9 40.46 178.96 40.46Q176.86 40.46 175.11 41.405Q173.36 42.35 172.38 44.31Q171.4 46.27 171.4 49.42L171.4 67.76L158.1 67.76L158.1 15.82L171.4 15.82L171.4 40.6L168.32 37.45Q170.49 33.32 174.27 31.255Q178.05 29.19 182.81 29.19ZM226.99 67.76L226.99 60.69L226.08 58.94L226.08 45.92Q226.08 42.77 224.155 41.055Q222.23 39.34 218.03 39.34Q215.3 39.34 212.5 40.215Q209.7 41.09 207.74 42.63L203.26 33.6Q206.48 31.5 210.995 30.345Q215.51 29.19 219.99 29.19Q229.23 29.19 234.305 33.425Q239.38 37.66 239.38 46.69L239.38 67.76L226.99 67.76ZM215.79 68.39Q211.24 68.39 208.09 66.85Q204.94 65.31 203.295 62.65Q201.65 59.99 201.65 56.7Q201.65 53.2 203.435 50.645Q205.22 48.09 208.93 46.725Q212.64 45.36 218.52 45.36L227.48 45.36L227.48 52.29L220.34 52.29Q217.12 52.29 215.825 53.34Q214.53 54.39 214.53 56.14Q214.53 57.89 215.86 58.94Q217.19 59.99 219.5 59.99Q221.67 59.99 223.455 58.905Q225.24 57.82 226.08 55.58L227.9 60.48Q226.85 64.4 223.805 66.395Q220.76 68.39 215.79 68.39ZM244.78 67.76L244.78 29.82L258.08 29.82L258.08 67.76L244.78 67.76ZM251.43 25.62Q247.79 25.62 245.55 23.59Q243.31 21.56 243.31 18.55Q243.31 15.54 245.55 13.51Q247.79 11.48 251.43 11.48Q255.07 11.48 257.31 13.405Q259.55 15.33 259.55 18.34Q259.55 21.49 257.345 23.555Q255.14 25.62 251.43 25.62ZM263.69 67.76L263.69 29.82L276.36 29.82L276.36 40.88L274.47 37.73Q276.15 33.46 279.93 31.325Q283.71 29.19 289.1 29.19L289.1 41.16Q288.19 41.02 287.525 40.985Q286.86 40.95 286.09 40.95Q282.03 40.95 279.51 43.155Q276.99 45.36 276.99 50.33L276.99 67.76L263.69 67.76Z" />
      </g>
    </g>
    <g id="Mask-Group" transform="translate(338 524)" clip-path="url(#clip_1)">
      <path d="M20 0C31.0472 0 40 8.95281 40 20L40 20C40 31.0472 31.0472 40 20 40L20 40C8.95281 40 0 31.0472 0 20L0 20C0 8.95281 8.95281 0 20 0L20 0Z" id="path_1" fill="none" fill-rule="evenodd" stroke="none" />
      <g clip-path="url(#clip_2)">
        <g id="Shamayim---Logo-Poster" transform="translate(-39.921875 0)">
          <path d="M59.9219 0C70.9691 0 79.9219 8.95281 79.9219 20L79.9219 20C79.9219 31.0472 70.9691 40 59.9219 40L59.9219 40C48.8747 40 39.9219 31.0472 39.9219 20L39.9219 20C39.9219 8.95281 48.8747 0 59.9219 0L59.9219 0Z" id="Shamayim---Logo-Poster" fill="#FFFFFF" fill-opacity="0" fill-rule="evenodd" stroke="none" />
          <path d="M0 83.7109C0 49.9913 27.3351 22.6562 61.0547 22.6562C94.7742 22.6562 122.109 49.9913 122.109 83.7109C122.109 117.43 94.7742 144.766 61.0547 144.766C27.3351 144.766 0 117.43 0 83.7109L0 83.7109L0 83.7109Z" id="Vector" fill="#1ABC9C" fill-rule="evenodd" stroke="none" />
          <path d="M59.9219 8.20312L60.8773 11.276L63.4375 11.7188L60.8773 12.6164L59.9219 19.6688L58.9691 12.6164L56.4062 11.7188L58.9691 11.276L59.9219 8.20312L59.9219 8.20312Z" id="Christ" fill="#1ABC9C" fill-rule="evenodd" stroke="none" />
          <path d="M42.8396 12.3971C42.8396 12.2142 42.9878 12.0661 43.1706 12.0661C43.3534 12.0661 43.5015 12.2142 43.5015 12.3971C43.5015 12.5799 43.3534 12.728 43.1706 12.728C42.9878 12.728 42.8396 12.5799 42.8396 12.3971L42.8396 12.3971ZM47.9844 8.52069C47.9844 8.33789 48.1326 8.18972 48.3153 8.18972C48.4982 8.18972 48.6463 8.33789 48.6463 8.52069C48.6463 8.70348 48.4982 8.85166 48.3153 8.85166C48.1326 8.85166 47.9844 8.70348 47.9844 8.52069L47.9844 8.52069ZM53.5815 4.54973C53.5815 4.36693 53.7297 4.21875 53.9125 4.21875C54.0953 4.21875 54.2435 4.36693 54.2435 4.54973C54.2435 4.73252 54.0953 4.88069 53.9125 4.88069C53.7297 4.88069 53.5815 4.73252 53.5815 4.54973L53.5815 4.54973ZM59.9531 3.08599C59.9531 2.93495 60.0756 2.8125 60.2266 2.8125C60.3777 2.8125 60.5001 2.93495 60.5001 3.08599C60.5001 3.23703 60.3777 3.35948 60.2266 3.35948C60.0756 3.35948 59.9531 3.23703 59.9531 3.08599L59.9531 3.08599ZM75.2137 14.3826C75.2137 14.1997 75.3619 14.0516 75.5446 14.0516C75.7275 14.0516 75.8756 14.1997 75.8756 14.3826C75.8756 14.5653 75.7275 14.7135 75.5446 14.7135C75.3619 14.7135 75.2137 14.5653 75.2137 14.3826L75.2137 14.3826ZM69.9191 6.62976C69.9191 6.44697 70.0672 6.29879 70.2501 6.29879C70.4329 6.29879 70.581 6.44697 70.581 6.62976C70.581 6.81256 70.4329 6.96073 70.2501 6.96073C70.0672 6.96073 69.9191 6.81256 69.9191 6.62976L69.9191 6.62976ZM54.2188 18.7316C54.2188 18.5489 54.3669 18.4007 54.5497 18.4007C54.7325 18.4007 54.8807 18.5489 54.8807 18.7316C54.8807 18.9145 54.7325 19.0626 54.5497 19.0626C54.3669 19.0626 54.2188 18.9145 54.2188 18.7316L54.2188 18.7316ZM47.3806 16.1535C47.3806 15.9707 47.5288 15.8226 47.7116 15.8226C47.8944 15.8226 48.0425 15.9707 48.0425 16.1535C48.0425 16.3364 47.8944 16.4845 47.7116 16.4845C47.5288 16.4845 47.3806 16.3364 47.3806 16.1535L47.3806 16.1535ZM75.3083 11.1207C75.3083 10.8074 75.5623 10.5533 75.8757 10.5533C76.189 10.5533 76.443 10.8074 76.443 11.1207C76.443 11.4341 76.189 11.6881 75.8757 11.6881C75.5623 11.6881 75.3083 11.4341 75.3083 11.1207L75.3083 11.1207ZM66.9882 16.6989C66.9882 16.3856 67.2422 16.1316 67.5556 16.1316C67.869 16.1316 68.1229 16.3856 68.1229 16.6989C68.1229 17.0123 67.869 17.2663 67.5556 17.2663C67.2422 17.2663 66.9882 17.0123 66.9882 16.6989L66.9882 16.6989ZM66.9882 7.76425C66.9882 7.68591 67.0517 7.6224 67.13 7.6224C67.2084 7.6224 67.2719 7.68591 67.2719 7.76425C67.2719 7.84258 67.2084 7.9061 67.13 7.9061C67.0517 7.9061 66.9882 7.84258 66.9882 7.76425L66.9882 7.76425ZM66.4844 13.6783C66.4844 13.6 66.5479 13.5365 66.6262 13.5365C66.7046 13.5365 66.7681 13.6 66.7681 13.6783C66.7681 13.7567 66.7046 13.8201 66.6262 13.8201C66.5479 13.8201 66.4844 13.7567 66.4844 13.6783L66.4844 13.6783ZM54.9437 8.06131C54.9437 7.98297 55.0072 7.91947 55.0855 7.91947C55.1639 7.91947 55.2274 7.98297 55.2274 8.06131C55.2274 8.13965 55.1639 8.20316 55.0855 8.20316C55.0072 8.20316 54.9437 8.13965 54.9437 8.06131L54.9437 8.06131ZM54.2188 14.2043C54.2188 14.126 54.2823 14.0625 54.3606 14.0625C54.4389 14.0625 54.5025 14.126 54.5025 14.2043C54.5025 14.2827 54.4389 14.3462 54.3606 14.3462C54.2823 14.3462 54.2188 14.2827 54.2188 14.2043L54.2188 14.2043ZM41.1771 17.8336C41.1771 17.5202 41.4311 17.2661 41.7445 17.2661C42.0578 17.2661 42.3119 17.5202 42.3119 17.8336C42.3119 18.1469 42.0578 18.4009 41.7445 18.4009C41.4311 18.4009 41.1771 18.1469 41.1771 17.8336L41.1771 17.8336ZM77.7266 18.458C77.7266 18.1447 77.9806 17.8906 78.2939 17.8906C78.6073 17.8906 78.8613 18.1447 78.8613 18.458C78.8613 18.7713 78.6073 19.0254 78.2939 19.0254C77.9806 19.0254 77.7266 18.7713 77.7266 18.458L77.7266 18.458ZM66.9531 18.8581C66.9531 18.7797 67.0167 18.7162 67.095 18.7162C67.1733 18.7162 67.2368 18.7797 67.2368 18.8581C67.2368 18.9364 67.1733 18.9999 67.095 18.9999C67.0167 18.9999 66.9531 18.9364 66.9531 18.8581L66.9531 18.8581ZM46.6695 18.2957C46.6695 18.2173 46.733 18.1538 46.8113 18.1538C46.8896 18.1538 46.9532 18.2173 46.9532 18.2957C46.9532 18.374 46.8896 18.4375 46.8113 18.4375C46.733 18.4375 46.6695 18.374 46.6695 18.2957L46.6695 18.2957ZM69.7301 12.3025C69.7301 12.1719 69.8359 12.0661 69.9664 12.0661C70.097 12.0661 70.2029 12.1719 70.2029 12.3025C70.2029 12.433 70.097 12.5389 69.9664 12.5389C69.8359 12.5389 69.7301 12.433 69.7301 12.3025L69.7301 12.3025ZM71.2419 17.5368C71.2419 17.4063 71.3477 17.3005 71.4782 17.3005C71.6088 17.3005 71.7147 17.4063 71.7147 17.5368C71.7147 17.6674 71.6088 17.7733 71.4782 17.7733C71.3477 17.7733 71.2419 17.6674 71.2419 17.5368L71.2419 17.5368ZM66.07 4.48999C66.07 4.35943 66.1758 4.25359 66.3064 4.25359C66.437 4.25359 66.5428 4.35943 66.5428 4.48999C66.5428 4.62057 66.437 4.72641 66.3064 4.72641C66.1758 4.72641 66.07 4.62057 66.07 4.48999L66.07 4.48999ZM60.8427 6.5352C60.8427 6.40463 60.9485 6.29879 61.0791 6.29879C61.2096 6.29879 61.3155 6.40463 61.3155 6.5352C61.3155 6.66576 61.2096 6.77161 61.0791 6.77161C60.9485 6.77161 60.8427 6.66576 60.8427 6.5352L60.8427 6.5352ZM49.9699 13.2479C49.9699 13.1174 50.0757 13.0116 50.2063 13.0116C50.3369 13.0116 50.4427 13.1174 50.4427 13.2479C50.4427 13.3785 50.3369 13.4844 50.2063 13.4844C50.0757 13.4844 49.9699 13.3785 49.9699 13.2479L49.9699 13.2479ZM73.9279 17.3134C73.9279 17.1307 74.0761 16.9825 74.2589 16.9825C74.4417 16.9825 74.5898 17.1307 74.5898 17.3134C74.5898 17.4963 74.4417 17.6444 74.2589 17.6444C74.0761 17.6444 73.9279 17.4963 73.9279 17.3134L73.9279 17.3134Z" id="stars" fill="#1ABC9C" fill-rule="evenodd" stroke="none" />
        </g>
      </g>
    </g>
    <g id="Mask-Group" transform="translate(338 524)" clip-path="url(#clip_1)">
      <path d="M20 0C31.0472 0 40 8.95281 40 20L40 20C40 31.0472 31.0472 40 20 40L20 40C8.95281 40 0 31.0472 0 20L0 20C0 8.95281 8.95281 0 20 0L20 0Z" id="path_1" fill="none" fill-rule="evenodd" stroke="none" />
      <g clip-path="url(#clip_2)">
        <g id="Shamayim---Logo-Poster" transform="translate(-39.921875 0)">
          <path d="M59.9219 0C70.9691 0 79.9219 8.95281 79.9219 20L79.9219 20C79.9219 31.0472 70.9691 40 59.9219 40L59.9219 40C48.8747 40 39.9219 31.0472 39.9219 20L39.9219 20C39.9219 8.95281 48.8747 0 59.9219 0L59.9219 0Z" id="Shamayim---Logo-Poster" fill="#FFFFFF" fill-opacity="0" fill-rule="evenodd" stroke="none" />
          <path d="M0 83.7109C0 49.9913 27.3351 22.6562 61.0547 22.6562C94.7742 22.6562 122.109 49.9913 122.109 83.7109C122.109 117.43 94.7742 144.766 61.0547 144.766C27.3351 144.766 0 117.43 0 83.7109L0 83.7109L0 83.7109Z" id="Vector" fill="#1ABC9C" fill-rule="evenodd" stroke="none" />
          <path d="M59.9219 8.20312L60.8773 11.276L63.4375 11.7188L60.8773 12.6164L59.9219 19.6688L58.9691 12.6164L56.4062 11.7188L58.9691 11.276L59.9219 8.20312L59.9219 8.20312Z" id="Christ" fill="#1ABC9C" fill-rule="evenodd" stroke="none" />
          <path d="M42.8396 12.3971C42.8396 12.2142 42.9878 12.0661 43.1706 12.0661C43.3534 12.0661 43.5015 12.2142 43.5015 12.3971C43.5015 12.5799 43.3534 12.728 43.1706 12.728C42.9878 12.728 42.8396 12.5799 42.8396 12.3971L42.8396 12.3971ZM47.9844 8.52069C47.9844 8.33789 48.1326 8.18972 48.3153 8.18972C48.4982 8.18972 48.6463 8.33789 48.6463 8.52069C48.6463 8.70348 48.4982 8.85166 48.3153 8.85166C48.1326 8.85166 47.9844 8.70348 47.9844 8.52069L47.9844 8.52069ZM53.5815 4.54973C53.5815 4.36693 53.7297 4.21875 53.9125 4.21875C54.0953 4.21875 54.2435 4.36693 54.2435 4.54973C54.2435 4.73252 54.0953 4.88069 53.9125 4.88069C53.7297 4.88069 53.5815 4.73252 53.5815 4.54973L53.5815 4.54973ZM59.9531 3.08599C59.9531 2.93495 60.0756 2.8125 60.2266 2.8125C60.3777 2.8125 60.5001 2.93495 60.5001 3.08599C60.5001 3.23703 60.3777 3.35948 60.2266 3.35948C60.0756 3.35948 59.9531 3.23703 59.9531 3.08599L59.9531 3.08599ZM75.2137 14.3826C75.2137 14.1997 75.3619 14.0516 75.5446 14.0516C75.7275 14.0516 75.8756 14.1997 75.8756 14.3826C75.8756 14.5653 75.7275 14.7135 75.5446 14.7135C75.3619 14.7135 75.2137 14.5653 75.2137 14.3826L75.2137 14.3826ZM69.9191 6.62976C69.9191 6.44697 70.0672 6.29879 70.2501 6.29879C70.4329 6.29879 70.581 6.44697 70.581 6.62976C70.581 6.81256 70.4329 6.96073 70.2501 6.96073C70.0672 6.96073 69.9191 6.81256 69.9191 6.62976L69.9191 6.62976ZM54.2188 18.7316C54.2188 18.5489 54.3669 18.4007 54.5497 18.4007C54.7325 18.4007 54.8807 18.5489 54.8807 18.7316C54.8807 18.9145 54.7325 19.0626 54.5497 19.0626C54.3669 19.0626 54.2188 18.9145 54.2188 18.7316L54.2188 18.7316ZM47.3806 16.1535C47.3806 15.9707 47.5288 15.8226 47.7116 15.8226C47.8944 15.8226 48.0425 15.9707 48.0425 16.1535C48.0425 16.3364 47.8944 16.4845 47.7116 16.4845C47.5288 16.4845 47.3806 16.3364 47.3806 16.1535L47.3806 16.1535ZM75.3083 11.1207C75.3083 10.8074 75.5623 10.5533 75.8757 10.5533C76.189 10.5533 76.443 10.8074 76.443 11.1207C76.443 11.4341 76.189 11.6881 75.8757 11.6881C75.5623 11.6881 75.3083 11.4341 75.3083 11.1207L75.3083 11.1207ZM66.9882 16.6989C66.9882 16.3856 67.2422 16.1316 67.5556 16.1316C67.869 16.1316 68.1229 16.3856 68.1229 16.6989C68.1229 17.0123 67.869 17.2663 67.5556 17.2663C67.2422 17.2663 66.9882 17.0123 66.9882 16.6989L66.9882 16.6989ZM66.9882 7.76425C66.9882 7.68591 67.0517 7.6224 67.13 7.6224C67.2084 7.6224 67.2719 7.68591 67.2719 7.76425C67.2719 7.84258 67.2084 7.9061 67.13 7.9061C67.0517 7.9061 66.9882 7.84258 66.9882 7.76425L66.9882 7.76425ZM66.4844 13.6783C66.4844 13.6 66.5479 13.5365 66.6262 13.5365C66.7046 13.5365 66.7681 13.6 66.7681 13.6783C66.7681 13.7567 66.7046 13.8201 66.6262 13.8201C66.5479 13.8201 66.4844 13.7567 66.4844 13.6783L66.4844 13.6783ZM54.9437 8.06131C54.9437 7.98297 55.0072 7.91947 55.0855 7.91947C55.1639 7.91947 55.2274 7.98297 55.2274 8.06131C55.2274 8.13965 55.1639 8.20316 55.0855 8.20316C55.0072 8.20316 54.9437 8.13965 54.9437 8.06131L54.9437 8.06131ZM54.2188 14.2043C54.2188 14.126 54.2823 14.0625 54.3606 14.0625C54.4389 14.0625 54.5025 14.126 54.5025 14.2043C54.5025 14.2827 54.4389 14.3462 54.3606 14.3462C54.2823 14.3462 54.2188 14.2827 54.2188 14.2043L54.2188 14.2043ZM41.1771 17.8336C41.1771 17.5202 41.4311 17.2661 41.7445 17.2661C42.0578 17.2661 42.3119 17.5202 42.3119 17.8336C42.3119 18.1469 42.0578 18.4009 41.7445 18.4009C41.4311 18.4009 41.1771 18.1469 41.1771 17.8336L41.1771 17.8336ZM77.7266 18.458C77.7266 18.1447 77.9806 17.8906 78.2939 17.8906C78.6073 17.8906 78.8613 18.1447 78.8613 18.458C78.8613 18.7713 78.6073 19.0254 78.2939 19.0254C77.9806 19.0254 77.7266 18.7713 77.7266 18.458L77.7266 18.458ZM66.9531 18.8581C66.9531 18.7797 67.0167 18.7162 67.095 18.7162C67.1733 18.7162 67.2368 18.7797 67.2368 18.8581C67.2368 18.9364 67.1733 18.9999 67.095 18.9999C67.0167 18.9999 66.9531 18.9364 66.9531 18.8581L66.9531 18.8581ZM46.6695 18.2957C46.6695 18.2173 46.733 18.1538 46.8113 18.1538C46.8896 18.1538 46.9532 18.2173 46.9532 18.2957C46.9532 18.374 46.8896 18.4375 46.8113 18.4375C46.733 18.4375 46.6695 18.374 46.6695 18.2957L46.6695 18.2957ZM69.7301 12.3025C69.7301 12.1719 69.8359 12.0661 69.9664 12.0661C70.097 12.0661 70.2029 12.1719 70.2029 12.3025C70.2029 12.433 70.097 12.5389 69.9664 12.5389C69.8359 12.5389 69.7301 12.433 69.7301 12.3025L69.7301 12.3025ZM71.2419 17.5368C71.2419 17.4063 71.3477 17.3005 71.4782 17.3005C71.6088 17.3005 71.7147 17.4063 71.7147 17.5368C71.7147 17.6674 71.6088 17.7733 71.4782 17.7733C71.3477 17.7733 71.2419 17.6674 71.2419 17.5368L71.2419 17.5368ZM66.07 4.48999C66.07 4.35943 66.1758 4.25359 66.3064 4.25359C66.437 4.25359 66.5428 4.35943 66.5428 4.48999C66.5428 4.62057 66.437 4.72641 66.3064 4.72641C66.1758 4.72641 66.07 4.62057 66.07 4.48999L66.07 4.48999ZM60.8427 6.5352C60.8427 6.40463 60.9485 6.29879 61.0791 6.29879C61.2096 6.29879 61.3155 6.40463 61.3155 6.5352C61.3155 6.66576 61.2096 6.77161 61.0791 6.77161C60.9485 6.77161 60.8427 6.66576 60.8427 6.5352L60.8427 6.5352ZM49.9699 13.2479C49.9699 13.1174 50.0757 13.0116 50.2063 13.0116C50.3369 13.0116 50.4427 13.1174 50.4427 13.2479C50.4427 13.3785 50.3369 13.4844 50.2063 13.4844C50.0757 13.4844 49.9699 13.3785 49.9699 13.2479L49.9699 13.2479ZM73.9279 17.3134C73.9279 17.1307 74.0761 16.9825 74.2589 16.9825C74.4417 16.9825 74.5898 17.1307 74.5898 17.3134C74.5898 17.4963 74.4417 17.6444 74.2589 17.6444C74.0761 17.6444 73.9279 17.4963 73.9279 17.3134L73.9279 17.3134Z" id="stars" fill="#1ABC9C" fill-rule="evenodd" stroke="none" />
        </g>
      </g>
    </g>
    <path d="M47 1L47 601" id="Line-Copy" fill="none" fill-rule="evenodd" stroke="#1ABC9C" stroke-width="5" stroke-linecap="square" clip-path="url(#clip_1)" />
    <path d="M47 1L47 601" id="Line-Copy" fill="none" fill-rule="evenodd" stroke="#1ABC9C" stroke-width="5" stroke-linecap="square" clip-path="url(#clip_1)" />
  </g>
</svg>