<?xml version="1.0" encoding="utf-8"?>
<svg width="512px" height="512px" viewBox="0 0 512 512" version="1.1" xmlns:xlink="http://www.w3.org/1999/xlink" xmlns="http://www.w3.org/2000/svg">
  <defs>
    <path d="M256 0C397.404 0 512 114.596 512 256L512 256C512 397.404 397.404 512 256 512L256 512C114.596 512 0 397.404 0 256L0 256C0 114.596 114.596 0 256 0Z" id="path_1" />
    <clipPath id="clip_1">
      <use xlink:href="#path_1" />
    </clipPath>
  </defs>
  <g id="Shamayim - Logo Poster" clip-path="url(#clip_1)">
    <path d="M256 0C397.404 0 512 114.596 512 256L512 256C512 397.404 397.404 512 256 512L256 512C114.596 512 0 397.404 0 256L0 256C0 114.596 114.596 0 256 0Z" id="Shamayim---Logo-Poster" fill="#BF5252" fill-opacity="0" stroke="none" />
    <path d="M-511 1071.5C-511 639.889 -161.111 290 270.5 290C702.11 290 1052 639.889 1052 1071.5C1052 1503.11 702.11 1853 270.5 1853C-161.111 1853 -511 1503.11 -511 1071.5L-511 1071.5Z" id="Vector" fill="#FFFFFF" fill-rule="evenodd" stroke="none" />
    <path d="M256 105L268.23 144.333L301 150L268.23 161.49L256 251.761L243.804 161.49L211 150L243.804 144.333L256 105Z" id="Christ" fill="#FFFFFF" fill-rule="evenodd" stroke="none" />
    <g id="stars" transform="translate(16.066895 36)">
      <path d="M21.2802 122.682C21.2802 120.342 23.1765 118.446 25.5158 118.446C27.8551 118.446 29.7515 120.342 29.7515 122.682C29.7515 125.021 27.8551 126.917 25.5158 126.917C23.1765 126.917 21.2802 125.021 21.2802 122.682Z" id="Oval" fill="#FFFFFF" fill-rule="evenodd" stroke="none" />
      <path d="M87.1337 73.0637C87.1337 70.7244 89.03 68.8281 91.3693 68.8281C93.7086 68.8281 95.605 70.7244 95.605 73.0637C95.605 75.403 93.7086 77.2994 91.3693 77.2994C89.03 77.2994 87.1337 75.403 87.1337 73.0637Z" id="Oval-Copy-2" fill="#FFFFFF" fill-rule="evenodd" stroke="none" />
      <path d="M158.777 22.2357C158.777 19.8964 160.673 18 163.013 18C165.352 18 167.248 19.8964 167.248 22.2357C167.248 24.575 165.352 26.4713 163.013 26.4713C160.673 26.4713 158.777 24.575 158.777 22.2357Z" id="Oval-Copy-12" fill="#FFFFFF" fill-rule="evenodd" stroke="none" />
      <path d="M240.333 3.5C240.333 1.567 241.9 0 243.833 0C245.766 0 247.333 1.567 247.333 3.5C247.333 5.433 245.766 7 243.833 7C241.9 7 240.333 5.433 240.333 3.5Z" id="Oval-Copy-13" fill="#FFFFFF" fill-rule="evenodd" stroke="none" />
      <path d="M435.669 148.096C435.669 145.756 437.565 143.86 439.904 143.86C442.244 143.86 444.14 145.756 444.14 148.096C444.14 150.435 442.244 152.331 439.904 152.331C437.565 152.331 435.669 150.435 435.669 148.096Z" id="Oval-Copy-11" fill="#FFFFFF" fill-rule="evenodd" stroke="none" />
      <path d="M367.898 48.8599C367.898 46.5206 369.794 44.6242 372.134 44.6242C374.473 44.6242 376.369 46.5206 376.369 48.8599C376.369 51.1992 374.473 53.0955 372.134 53.0955C369.794 53.0955 367.898 51.1992 367.898 48.8599Z" id="Oval-Copy-15" fill="#FFFFFF" fill-rule="evenodd" stroke="none" />
      <path d="M166.933 203.764C166.933 201.425 168.829 199.529 171.169 199.529C173.508 199.529 175.404 201.425 175.404 203.764C175.404 206.104 173.508 208 171.169 208C168.829 208 166.933 206.104 166.933 203.764Z" id="Oval-Copy-3" fill="#FFFFFF" fill-rule="evenodd" stroke="none" />
      <path d="M79.4044 170.764C79.4044 168.425 81.3008 166.529 83.6401 166.529C85.9794 166.529 87.8758 168.425 87.8758 170.764C87.8758 173.104 85.9794 175 83.6401 175C81.3008 175 79.4044 173.104 79.4044 170.764Z" id="Oval-Copy-18" fill="#FFFFFF" fill-rule="evenodd" stroke="none" />
      <path d="M436.879 106.344C436.879 102.334 440.13 99.0828 444.14 99.0828C448.15 99.0828 451.401 102.334 451.401 106.344C451.401 110.354 448.15 113.605 444.14 113.605C440.13 113.605 436.879 110.354 436.879 106.344Z" id="Oval-Copy" fill="#FFFFFF" fill-rule="evenodd" stroke="none" />
      <path d="M330.382 177.745C330.382 173.735 333.633 170.484 337.643 170.484C341.654 170.484 344.904 173.735 344.904 177.745C344.904 181.755 341.654 185.006 337.643 185.006C333.633 185.006 330.382 181.755 330.382 177.745Z" id="Oval-Copy-5" fill="#FFFFFF" fill-rule="evenodd" stroke="none" />
      <path d="M330.382 63.3822C330.382 62.3796 331.195 61.5669 332.197 61.5669C333.2 61.5669 334.013 62.3796 334.013 63.3822C334.013 64.3847 333.2 65.1975 332.197 65.1975C331.195 65.1975 330.382 64.3847 330.382 63.3822Z" id="Oval-Copy-6" fill="#FFFFFF" fill-rule="evenodd" stroke="none" />
      <path d="M323.933 139.082C323.933 138.08 324.746 137.267 325.748 137.267C326.751 137.267 327.564 138.08 327.564 139.082C327.564 140.085 326.751 140.897 325.748 140.897C324.746 140.897 323.933 140.085 323.933 139.082Z" id="Oval-Copy-21" fill="#FFFFFF" fill-rule="evenodd" stroke="none" />
      <path d="M176.213 67.1848C176.213 66.1822 177.025 65.3695 178.028 65.3695C179.031 65.3695 179.843 66.1822 179.843 67.1848C179.843 68.1873 179.031 69.0001 178.028 69.0001C177.025 69.0001 176.213 68.1873 176.213 67.1848Z" id="Oval-Copy-19" fill="#FFFFFF" fill-rule="evenodd" stroke="none" />
      <path d="M166.933 145.815C166.933 144.813 167.746 144 168.748 144C169.751 144 170.564 144.813 170.564 145.815C170.564 146.818 169.751 147.631 168.748 147.631C167.746 147.631 166.933 146.818 166.933 145.815Z" id="Oval-Copy-22" fill="#FFFFFF" fill-rule="evenodd" stroke="none" />
      <path d="M0 192.268C0 188.257 3.25093 185.006 7.26115 185.006C11.2714 185.006 14.5223 188.257 14.5223 192.268C14.5223 196.278 11.2714 199.529 7.26115 199.529C3.25093 199.529 0 196.278 0 192.268Z" id="Oval-Copy-4" fill="#FFFFFF" fill-rule="evenodd" stroke="none" />
      <path d="M467.833 200.261C467.833 196.251 471.084 193 475.094 193C479.104 193 482.355 196.251 482.355 200.261C482.355 204.271 479.104 207.522 475.094 207.522C471.084 207.522 467.833 204.271 467.833 200.261Z" id="Oval-Copy-17" fill="#FFFFFF" fill-rule="evenodd" stroke="none" />
      <path d="M329.933 205.383C329.933 204.38 330.746 203.568 331.748 203.568C332.751 203.568 333.564 204.38 333.564 205.383C333.564 206.385 332.751 207.198 331.748 207.198C330.746 207.198 329.933 206.385 329.933 205.383Z" id="Oval-Copy-7" fill="#FFFFFF" fill-rule="evenodd" stroke="none" />
      <path d="M70.3025 198.185C70.3025 197.182 71.1152 196.369 72.1178 196.369C73.1203 196.369 73.9331 197.182 73.9331 198.185C73.9331 199.187 73.1203 200 72.1178 200C71.1152 200 70.3025 199.187 70.3025 198.185Z" id="Oval-Copy-20" fill="#FFFFFF" fill-rule="evenodd" stroke="none" />
      <path d="M365.478 121.471C365.478 119.8 366.832 118.446 368.503 118.446C370.174 118.446 371.529 119.8 371.529 121.471C371.529 123.142 370.174 124.497 368.503 124.497C366.832 124.497 365.478 123.142 365.478 121.471Z" id="Oval-Copy-8" fill="#FFFFFF" fill-rule="evenodd" stroke="none" />
      <path d="M384.829 188.471C384.829 186.8 386.183 185.446 387.854 185.446C389.525 185.446 390.88 186.8 390.88 188.471C390.88 190.142 389.525 191.497 387.854 191.497C386.183 191.497 384.829 190.142 384.829 188.471Z" id="Oval-Copy-23" fill="#FFFFFF" fill-rule="evenodd" stroke="none" />
      <path d="M318.629 21.4713C318.629 19.8004 319.983 18.4459 321.654 18.4459C323.325 18.4459 324.68 19.8004 324.68 21.4713C324.68 23.1423 323.325 24.4968 321.654 24.4968C319.983 24.4968 318.629 23.1423 318.629 21.4713Z" id="Oval-Copy-16" fill="#FFFFFF" fill-rule="evenodd" stroke="none" />
      <path d="M251.72 47.6497C251.72 45.9788 253.074 44.6242 254.745 44.6242C256.416 44.6242 257.771 45.9788 257.771 47.6497C257.771 49.3206 256.416 50.6752 254.745 50.6752C253.074 50.6752 251.72 49.3206 251.72 47.6497Z" id="Oval-Copy-9" fill="#FFFFFF" fill-rule="evenodd" stroke="none" />
      <path d="M112.548 133.573C112.548 131.902 113.902 130.548 115.573 130.548C117.244 130.548 118.599 131.902 118.599 133.573C118.599 135.244 117.244 136.599 115.573 136.599C113.902 136.599 112.548 135.244 112.548 133.573Z" id="Oval-Copy-10" fill="#FFFFFF" fill-rule="evenodd" stroke="none" />
      <path d="M419.21 185.611C419.21 183.272 421.107 181.376 423.446 181.376C425.785 181.376 427.681 183.272 427.681 185.611C427.681 187.951 425.785 189.847 423.446 189.847C421.107 189.847 419.21 187.951 419.21 185.611Z" id="Oval-Copy-14" fill="#FFFFFF" fill-rule="evenodd" stroke="none" />
    </g>
  </g>
</svg>